# This file uses centimeters as units for non-parametric coordinates.

mtllib door3.mtl
g default
v -8.480133 0.250903 -3.818369
v -8.107316 0.250903 -3.818369
v -8.480133 2.288825 -3.818369
v -8.107316 2.288825 -3.818369
v -8.480133 2.288825 -5.239344
v -8.107316 2.288825 -5.239344
v -8.480133 0.250903 -5.239344
v -8.107316 0.250903 -5.239344
v -8.480133 0.389807 -5.142491
v -8.480133 0.389807 -3.915222
v -8.480133 2.149921 -3.915222
v -8.480133 2.149921 -5.142491
v -8.648497 0.250904 -5.239344
v -8.648497 0.250904 -3.818369
v -8.648497 0.389808 -3.915222
v -8.648497 0.389808 -5.142491
vt 0.840805 0.087064
vt 0.296740 0.294589
vt 0.000000 0.000056
vt 0.958962 0.906593
vt 0.000039 0.205463
vt 0.567006 0.906596
vt 0.294628 0.205407
vt 0.463002 0.087159
vt 0.480855 0.179547
vt 0.823215 0.185657
vt 0.932246 0.868278
vt 0.593722 0.868281
vt 0.505668 0.104745
vt 0.806872 0.119777
vt 0.786900 0.156806
vt 0.514006 0.143546
vt 0.599936 0.857109
vt 0.599996 0.390317
vt 0.925414 0.857151
vt 0.925475 0.390359
vt 0.958958 0.344461
vt 0.932243 0.382776
vt 0.350598 0.500005
vt 0.593718 0.382779
vt 0.296706 0.499996
vt 0.294589 0.000000
vt 0.296656 0.794584
vt 0.296790 0.000000
vt 0.350682 0.000009
vt 0.296622 0.999991
vt 0.350548 0.794593
vt 0.567002 0.344464
vt 0.350514 1.000000
vt 0.350632 0.294598
vn 0.000000 0.000000 1.000000
vn 0.000000 0.000000 1.000000
vn 0.000000 0.000000 1.000000
vn 0.000000 0.000000 1.000000
vn 0.000000 1.000000 0.000000
vn 0.000000 1.000000 0.000000
vn 0.000000 1.000000 0.000000
vn 0.000000 1.000000 0.000000
vn 0.000000 0.000000 -1.000000
vn 0.000000 0.000000 -1.000000
vn 0.000000 0.000000 -1.000000
vn 0.000000 0.000000 -1.000000
vn -0.000001 -1.000000 0.000000
vn 0.000000 -1.000000 0.000000
vn 0.000000 -1.000000 0.000000
vn -0.000001 -1.000000 0.000000
vn 1.000000 0.000000 0.000000
vn 1.000000 0.000000 0.000000
vn 1.000000 0.000000 0.000000
vn 1.000000 0.000000 0.000000
vn -1.000000 0.000000 0.000000
vn -1.000000 0.000000 0.000000
vn -1.000000 0.000000 0.000000
vn -1.000000 0.000000 0.000000
vn -1.000000 0.000000 0.000000
vn -1.000000 0.000000 0.000000
vn -1.000000 0.000000 0.000000
vn -1.000000 0.000000 0.000000
vn -1.000000 0.000000 0.000000
vn -1.000000 0.000000 0.000000
vn -1.000000 0.000000 0.000000
vn -1.000000 0.000000 0.000000
vn -1.000000 0.000000 0.000000
vn -1.000000 0.000000 0.000000
vn -1.000000 0.000000 0.000000
vn -1.000000 0.000000 0.000000
vn -1.000000 0.000000 0.000000
vn -1.000000 0.000000 0.000000
vn -1.000000 0.000000 0.000000
vn -1.000000 0.000000 0.000000
vn -0.000003 -1.000000 0.000000
vn -0.000003 -1.000000 0.000000
vn 0.000002 0.571955 0.820285
vn 0.000002 0.571955 0.820285
vn 0.000002 0.571955 0.820285
vn 0.000002 0.571955 0.820285
vn 0.000003 1.000000 0.000000
vn 0.000003 1.000000 0.000000
vn 0.000003 1.000000 0.000000
vn 0.000003 1.000000 0.000000
vn 0.000001 0.571957 -0.820283
vn 0.000001 0.571957 -0.820283
vn 0.000001 0.571957 -0.820283
vn 0.000001 0.571957 -0.820283
s off
g door
usemtl initialShadingGroup
f 1/34/1 2/2/2 4/28/3 3/29/4
f 3/33/5 4/30/6 6/27/7 5/31/8
f 5/31/9 6/27/10 8/25/11 7/23/12
s 1
f 7/23/13 8/25/14 2/2/15 1/34/16
s off
f 2/26/17 8/7/18 6/5/19 4/3/20
f 9/18/21 10/20/22 11/19/23 12/17/24
f 13/13/25 14/14/26 15/15/27 16/16/28
f 1/21/29 3/4/30 11/11/31 10/22/32
f 3/4/33 5/6/34 12/12/35 11/11/36
f 5/6/37 7/32/38 9/24/39 12/12/40
s 1
f 7/8/13 1/1/16 14/14/41 13/13/42
s off
f 1/1/43 10/10/44 15/15/45 14/14/46
f 10/10/47 9/9/48 16/16/49 15/15/50
f 9/9/51 7/8/52 13/13/53 16/16/54
