# This file uses centimeters as units for non-parametric coordinates.

mtllib Main3.mtl
g default
v 0.284805 0.237019 9.671480
v 4.463219 0.237019 9.671480
v 0.284805 2.519994 9.671480
v 4.463219 2.519994 9.671480
v 0.284805 2.519994 -6.346403
v 4.463219 2.519994 -6.346403
v 0.284805 0.237019 -6.346403
v 4.463219 0.237019 -6.346403
v 0.284805 2.519994 -2.733728
v 0.284805 0.237019 -2.733728
v 4.463219 0.237019 -2.733728
v 4.463219 2.519994 -2.733728
v -8.325850 0.237019 -6.346403
v -8.325850 0.237019 -2.733728
v -8.325850 2.519994 -2.733728
v -8.325850 2.519994 -6.346403
v 0.284805 3.107783 9.671480
v 4.463219 3.107783 9.671480
v 4.463219 3.107783 -2.733728
v 0.284805 3.107783 -2.733728
v 4.463219 3.107783 -6.346403
v 0.284805 3.107783 -6.346403
v -8.325850 3.107783 -6.346403
v -8.325850 3.107783 -2.733728
v -0.115195 2.519994 10.071484
v 4.863219 2.519994 10.071484
v 4.863219 3.107783 10.071484
v -0.115195 3.107783 10.071484
v 4.863219 2.519994 -2.733728
v 4.863219 3.107783 -2.733728
v -0.115195 2.519994 -2.333728
v -0.115195 3.107783 -2.333728
v 4.863219 2.519994 -6.746403
v 4.863219 3.107783 -6.746403
v 0.284805 2.519994 -6.746403
v 0.284805 3.107783 -6.746403
v -8.725850 2.519994 -6.746403
v -8.725850 3.107783 -6.746403
v -8.725850 2.519994 -2.333728
v -8.725850 3.107783 -2.333728
v 0.284805 6.018315 9.671480
v 4.463219 6.018315 9.671480
v 4.463219 6.018315 -2.733728
v 0.284805 6.018315 -2.733728
v 4.463219 6.018315 -6.346403
v 0.284805 6.018315 -6.346403
v -8.325850 6.018315 -6.346403
v -8.325850 6.018315 -2.733728
v 0.284805 7.025335 9.671480
v 4.463219 7.025335 9.671480
v 4.463219 7.025335 -2.733728
v 0.284805 7.025335 -2.733728
v 4.463219 7.025335 -6.346403
v 0.284805 7.025335 -6.346403
v -8.325850 7.025335 -6.346403
v -8.325850 7.025335 -2.733728
v -0.215195 6.018315 10.171482
v 4.963219 6.018315 10.171482
v 4.963219 7.025335 10.171482
v -0.215195 7.025335 10.171482
v 4.963219 6.018315 -2.733728
v 4.963219 7.025335 -2.733728
v -0.215195 6.018315 -2.233729
v -0.215195 7.025335 -2.233729
v 4.963219 6.018315 -6.846402
v 4.963219 7.025335 -6.846402
v 0.284805 6.018315 -6.846402
v 0.284805 7.025335 -6.846402
v -8.825852 6.018315 -6.846402
v -8.825852 7.025335 -6.846402
v -8.825852 6.018315 -2.233729
v -8.825852 7.025335 -2.233729
vt 0.486475 0.649450
vt 0.353556 0.278019
vt 0.616180 0.679325
vt 0.614275 0.616367
vt 0.640312 0.626513
vt 0.642218 0.694094
vt 0.639821 0.916275
vt 0.642062 0.431212
vt 0.616814 0.088375
vt 0.616102 0.007662
vt 0.486534 0.999993
vt 0.281009 0.000006
vt 0.486438 0.434135
vt 0.486524 0.937289
vt 0.616258 0.900512
vt 0.617303 0.423911
vt 0.486403 0.221978
vt 0.486413 0.284682
vt 0.617630 0.298103
vt 0.615842 0.241489
vt 0.640193 0.985559
vt 0.640044 0.089588
vt 0.641443 0.243813
vt 0.644735 0.304741
vt 0.607634 0.617340
vt 0.609164 0.677330
vt 0.597944 0.677372
vt 0.596537 0.617487
vt 0.608536 0.900552
vt 0.597065 0.900555
vt 0.610203 0.424563
vt 0.598437 0.424225
vt 0.608313 0.000000
vt 0.596971 0.000128
vt 0.609095 0.088412
vt 0.597592 0.088438
vt 0.609082 0.242820
vt 0.597912 0.242970
vt 0.610791 0.297421
vt 0.599783 0.297694
vt 0.404097 0.721974
vt 0.404095 0.649450
vt 0.404105 0.937289
vt 0.404087 0.434135
vt 0.404072 0.000000
vt 0.404075 0.072524
vt 0.404080 0.221978
vt 0.404082 0.284682
vt 0.678243 0.694254
vt 0.675593 0.626507
vt 0.678479 0.916360
vt 0.679874 0.432369
vt 0.678186 0.009479
vt 0.678781 0.089612
vt 0.677320 0.243613
vt 0.679654 0.304295
vt 0.667439 0.627453
vt 0.669555 0.691935
vt 0.650583 0.692159
vt 0.648733 0.627946
vt 0.668916 0.916400
vt 0.649381 0.916281
vt 0.671037 0.433183
vt 0.650831 0.432214
vt 0.668555 0.000000
vt 0.649328 0.000225
vt 0.669221 0.089591
vt 0.649606 0.089480
vt 0.668995 0.244981
vt 0.650147 0.245458
vt 0.671269 0.303738
vt 0.652784 0.304574
vt 0.353570 0.434137
vt 0.353565 0.284684
vt 0.353563 0.221979
vt 0.353557 0.072526
vt 0.353555 0.000002
vt 0.353587 0.937291
vt 0.353577 0.649452
vt 0.353580 0.721976
vt 0.062736 0.149454
vt 0.062704 0.000000
vt 0.000000 0.000013
vt 0.000032 0.149467
vt 0.000047 0.221991
vt 0.062751 0.221978
vt 0.278051 0.149408
vt 0.278066 0.221932
vt 0.591378 0.423506
vt 0.593200 0.298110
vt 0.590869 0.241445
vt 0.589871 0.088510
vt 0.589304 0.007915
vt 0.589346 0.900583
vt 0.589692 0.616186
vt 0.591159 0.679105
vt 0.446788 0.284689
vt 0.446777 0.221984
vt 0.446752 0.072531
vt 0.446813 0.434142
vt 0.446899 0.937295
vt 0.446740 0.000007
vt 0.446862 0.721981
vt 0.446850 0.649457
vt 0.669013 0.994859
vt 0.649801 0.995052
vt 0.639796 0.009795
vt 0.678559 0.985318
vt 0.608898 0.977947
vt 0.597559 0.978052
vt 0.589790 0.970371
vt 0.616582 0.970181
vt 0.404107 0.999993
vt 0.353590 0.999995
vt 0.446909 1.000000
vt 0.131555 0.000019
vt 0.131560 0.062723
vt 0.281014 0.062711
vt 0.486377 0.072524
vt 0.353538 0.062705
vt 0.486487 0.721974
vt 0.281032 0.278025
vt 0.486365 0.000000
vt 0.353533 0.000000
vn 0.000000 0.000000 1.000000
vn 0.000000 0.000000 1.000000
vn 0.000000 0.000000 1.000000
vn 0.000000 0.000000 1.000000
vn 0.000000 1.000000 -0.000000
vn 0.000000 1.000000 -0.000000
vn 0.000000 1.000000 0.000000
vn 0.000000 1.000000 -0.000000
vn 0.000000 0.000000 -1.000000
vn 0.000000 0.000000 -1.000000
vn 0.000000 0.000000 -1.000000
vn 0.000000 0.000000 -1.000000
vn 0.000000 -1.000000 0.000000
vn 0.000000 -1.000000 0.000000
vn 0.000000 -1.000000 0.000000
vn 0.000000 -1.000000 0.000000
vn 1.000000 0.000000 0.000000
vn 1.000000 0.000000 0.000000
vn 1.000000 0.000000 0.000000
vn 1.000000 0.000000 0.000000
vn -1.000000 0.000000 0.000000
vn -1.000000 0.000000 0.000000
vn -1.000000 0.000000 0.000000
vn -1.000000 0.000000 0.000000
vn -1.000000 0.000000 0.000000
vn -1.000000 0.000000 0.000000
vn -1.000000 0.000000 0.000000
vn -1.000000 0.000000 0.000000
vn 0.000000 -1.000000 0.000000
vn 0.000000 -1.000000 0.000000
vn 1.000000 0.000000 0.000000
vn 1.000000 0.000000 0.000000
vn 0.000000 1.000000 0.000000
vn 0.000000 1.000000 -0.000000
vn 0.000000 -1.000000 0.000000
vn 0.000000 -1.000000 0.000000
vn 0.000000 -1.000000 0.000000
vn 0.000000 -1.000000 0.000000
vn 0.000000 0.000000 1.000000
vn 0.000000 0.000000 1.000000
vn 0.000000 0.000000 1.000000
vn 0.000000 0.000000 1.000000
vn 0.000000 1.000000 -0.000000
vn 0.000000 1.000000 -0.000000
vn 0.000000 0.000000 -1.000000
vn 0.000000 0.000000 -1.000000
vn 0.000000 0.000000 -1.000000
vn 0.000000 0.000000 -1.000000
vn 0.000000 0.000000 1.000000
vn 0.000000 0.000000 1.000000
vn 0.000000 0.000000 1.000000
vn 0.000000 0.000000 1.000000
vn 1.000000 0.000000 0.000000
vn 1.000000 0.000000 0.000000
vn 1.000000 0.000000 0.000000
vn 1.000000 0.000000 0.000000
vn -1.000000 0.000000 0.000000
vn -1.000000 0.000000 0.000000
vn -1.000000 0.000000 0.000000
vn -1.000000 0.000000 0.000000
vn 1.000000 0.000000 0.000000
vn 1.000000 0.000000 0.000000
vn 1.000000 0.000000 0.000000
vn 1.000000 0.000000 0.000000
vn 0.000000 0.000000 -1.000000
vn 0.000000 0.000000 -1.000000
vn 0.000000 0.000000 -1.000000
vn 0.000000 0.000000 -1.000000
vn 0.000000 0.000000 -1.000000
vn 0.000000 0.000000 -1.000000
vn 0.000000 0.000000 -1.000000
vn 0.000000 0.000000 -1.000000
vn -1.000000 0.000000 0.000000
vn -1.000000 0.000000 0.000000
vn -1.000000 0.000000 0.000000
vn -1.000000 0.000000 0.000000
vn 0.000000 0.000000 1.000000
vn 0.000000 0.000000 1.000000
vn 0.000000 0.000000 1.000000
vn 0.000000 0.000000 1.000000
vn 0.000000 -1.000000 0.000000
vn 0.000000 -1.000000 0.000000
vn 0.000000 -1.000000 0.000000
vn 0.000000 -1.000000 0.000000
vn 0.000000 1.000000 -0.000000
vn 0.000000 1.000000 -0.000000
vn 0.000000 1.000000 -0.000000
vn 0.000000 1.000000 -0.000000
vn 0.000000 -1.000000 0.000000
vn 0.000000 -1.000000 0.000000
vn 0.000000 1.000000 0.000000
vn 0.000000 1.000000 0.000000
vn 0.000000 -1.000000 0.000000
vn 0.000000 -1.000000 0.000000
vn 0.000000 1.000000 -0.000000
vn 0.000000 1.000000 -0.000000
vn 0.000000 -1.000000 0.000000
vn 0.000000 -1.000000 0.000000
vn 0.000000 1.000000 0.000000
vn 0.000000 1.000000 0.000000
vn 0.000000 -1.000000 0.000000
vn 0.000000 -1.000000 0.000000
vn 0.000000 1.000000 -0.000000
vn 0.000000 1.000000 -0.000000
vn 0.000000 -1.000000 0.000000
vn 0.000000 -1.000000 0.000000
vn 0.000000 1.000000 -0.000000
vn 0.000000 1.000000 -0.000000
vn 0.000000 -1.000000 0.000000
vn 0.000000 -1.000000 0.000000
vn 0.000000 1.000000 -0.000000
vn 0.000000 1.000000 -0.000000
vn 0.000000 0.000000 1.000000
vn 0.000000 0.000000 1.000000
vn 0.000000 0.000000 1.000000
vn 0.000000 0.000000 1.000000
vn 1.000000 0.000000 0.000000
vn 1.000000 0.000000 0.000000
vn 1.000000 0.000000 0.000000
vn 1.000000 0.000000 0.000000
vn -1.000000 0.000000 0.000000
vn -1.000000 0.000000 0.000000
vn -1.000000 0.000000 0.000000
vn -1.000000 0.000000 0.000000
vn 1.000000 0.000000 0.000000
vn 1.000000 0.000000 0.000000
vn 1.000000 0.000000 0.000000
vn 1.000000 0.000000 0.000000
vn 0.000000 0.000000 -1.000000
vn 0.000000 0.000000 -1.000000
vn 0.000000 0.000000 -1.000000
vn 0.000000 0.000000 -1.000000
vn 0.000000 0.000000 -1.000000
vn 0.000000 0.000000 -1.000000
vn 0.000000 0.000000 -1.000000
vn 0.000000 0.000000 -1.000000
vn -1.000000 0.000000 0.000000
vn -1.000000 0.000000 0.000000
vn -1.000000 0.000000 0.000000
vn -1.000000 0.000000 0.000000
vn 0.000000 0.000000 1.000000
vn 0.000000 0.000000 1.000000
vn 0.000000 0.000000 1.000000
vn 0.000000 0.000000 1.000000
vn 0.000000 0.000000 1.000000
vn 0.000000 0.000000 1.000000
vn 0.000000 0.000000 1.000000
vn 0.000000 0.000000 1.000000
vn 1.000000 0.000000 0.000000
vn 1.000000 0.000000 0.000000
vn 1.000000 0.000000 0.000000
vn 1.000000 0.000000 0.000000
vn -1.000000 0.000000 0.000000
vn -1.000000 0.000000 0.000000
vn -1.000000 0.000000 0.000000
vn -1.000000 0.000000 0.000000
vn 1.000000 0.000000 0.000000
vn 1.000000 0.000000 0.000000
vn 1.000000 0.000000 0.000000
vn 1.000000 0.000000 0.000000
vn 0.000000 0.000000 -1.000000
vn 0.000000 0.000000 -1.000000
vn 0.000000 0.000000 -1.000000
vn 0.000000 0.000000 -1.000000
vn 0.000000 0.000000 -1.000000
vn 0.000000 0.000000 -1.000000
vn 0.000000 0.000000 -1.000000
vn 0.000000 0.000000 -1.000000
vn -1.000000 0.000000 0.000000
vn -1.000000 0.000000 0.000000
vn -1.000000 0.000000 0.000000
vn -1.000000 0.000000 0.000000
vn 0.000000 0.000000 1.000000
vn 0.000000 0.000000 1.000000
vn 0.000000 0.000000 1.000000
vn 0.000000 0.000000 1.000000
vn 0.000000 -1.000000 0.000000
vn 0.000000 -1.000000 0.000000
vn 0.000000 -1.000000 0.000000
vn 0.000000 -1.000000 0.000000
vn 0.000000 1.000000 -0.000000
vn 0.000000 1.000000 -0.000000
vn 0.000000 -1.000000 0.000000
vn 0.000000 -1.000000 0.000000
vn 0.000000 1.000000 0.000000
vn 0.000000 -1.000000 0.000000
vn 0.000000 -1.000000 0.000000
vn 0.000000 1.000000 -0.000000
vn 0.000000 -1.000000 -0.000000
vn 0.000000 -1.000000 -0.000000
vn 0.000000 1.000000 0.000000
vn 0.000000 -1.000000 0.000001
vn 0.000000 -1.000000 0.000001
vn 0.000000 1.000000 -0.000000
vn 0.000000 -1.000000 0.000001
vn 0.000000 -1.000000 0.000000
vn 0.000000 1.000000 -0.000000
vn 0.000000 -1.000000 0.000000
vn 0.000000 -1.000000 0.000000
vn 0.000000 1.000000 -0.000000
s off
g Main_Building3
usemtl initialShadingGroup
f 1/1/1 2/121/2 4/103/3 3/104/4
s 1
f 49/87/5 50/88/6 51/86/7 52/81/8
s off
f 5/99/9 6/102/10 8/123/11 7/119/12
s 2
f 10/118/13 11/120/14 2/2/15 1/122/16
s 3
f 2/121/17 11/14/18 12/101/19 4/103/20
s off
f 9/100/21 10/13/22 1/1/23 3/104/24
f 13/17/25 14/18/26 15/97/27 16/98/28
s 2
f 7/12/29 8/124/30 11/120/14 10/118/13
s 3
f 12/101/19 11/14/18 8/11/31 6/115/32
s 1
f 52/81/8 51/86/7 53/85/33 54/84/34
s off
f 7/12/35 10/118/36 14/117/37 13/116/38
f 10/13/39 9/100/40 15/97/41 14/18/42
s 1
f 52/81/8 54/84/34 55/83/43 56/82/44
s off
f 5/99/45 7/119/46 13/17/47 16/98/48
f 25/25/49 26/26/50 27/27/51 28/28/52
f 26/26/53 29/29/54 30/30/55 27/27/56
f 31/31/57 25/25/58 28/28/59 32/32/60
f 29/29/61 33/109/62 34/110/63 30/30/64
f 33/33/65 35/35/66 36/36/67 34/34/68
f 35/35/69 37/37/70 38/38/71 36/36/72
f 37/37/73 39/39/74 40/40/75 38/38/76
f 39/39/77 31/31/78 32/32/79 40/40/80
s 5
f 3/4/81 4/3/82 26/26/83 25/25/84
s 6
f 18/96/85 17/95/86 28/28/87 27/27/88
s 5
f 4/3/82 12/15/89 29/29/90 26/26/83
s 6
f 19/94/91 18/96/85 27/27/88 30/30/92
s 5
f 9/16/93 3/4/81 25/25/84 31/31/94
s 6
f 17/95/86 20/89/95 32/32/96 28/28/87
s 5
f 12/15/89 6/112/97 33/109/98 29/29/90
s 6
f 21/111/99 19/94/91 30/30/92 34/110/100
s 5
f 6/10/97 5/9/101 35/35/102 33/33/98
s 6
f 22/92/103 21/93/99 34/34/100 36/36/104
s 5
f 5/9/101 16/20/105 37/37/106 35/35/102
s 6
f 23/91/107 22/92/103 36/36/104 38/38/108
s 5
f 16/20/105 15/19/109 39/39/110 37/37/106
s 6
f 24/90/111 23/91/107 38/38/108 40/40/112
s 5
f 15/19/109 9/16/93 31/31/94 39/39/110
s 6
f 20/89/95 24/90/111 40/40/112 32/32/96
s off
f 17/42/113 18/41/114 42/80/115 41/79/116
f 18/41/117 19/43/118 43/78/119 42/80/120
f 20/44/121 17/42/122 41/79/123 44/73/124
f 19/43/125 21/113/126 45/114/127 43/78/128
f 21/45/129 22/46/130 46/76/131 45/77/132
f 22/46/133 23/47/134 47/75/135 46/76/136
f 23/47/137 24/48/138 48/74/139 47/75/140
f 24/48/141 20/44/142 44/73/143 48/74/144
f 57/57/145 58/58/146 59/59/147 60/60/148
f 58/58/149 61/61/150 62/62/151 59/59/152
f 63/63/153 57/57/154 60/60/155 64/64/156
f 61/61/157 65/105/158 66/106/159 62/62/160
f 65/65/161 67/67/162 68/68/163 66/66/164
f 67/67/165 69/69/166 70/70/167 68/68/168
f 69/69/169 71/71/170 72/72/171 70/70/172
f 71/71/173 63/63/174 64/64/175 72/72/176
s 7
f 41/50/177 42/49/178 58/58/179 57/57/180
s 1
f 50/6/6 49/5/5 60/60/181 59/59/182
s 7
f 42/49/178 43/51/183 61/61/184 58/58/179
s 1
f 51/7/7 50/6/6 59/59/182 62/62/185
s 7
f 44/52/186 41/50/177 57/57/180 63/63/187
s 1
f 49/5/5 52/8/8 64/64/188 60/60/181
s 7
f 43/51/183 45/108/189 65/105/190 61/61/184
s 1
f 53/21/33 51/7/7 62/62/185 66/106/191
s 7
f 45/53/189 46/54/192 67/67/193 65/65/190
s 1
f 54/22/34 53/107/33 66/66/191 68/68/194
s 7
f 46/54/192 47/55/195 69/69/196 67/67/193
s 1
f 55/23/43 54/22/34 68/68/194 70/70/197
s 7
f 47/55/195 48/56/198 71/71/199 69/69/196
s 1
f 56/24/44 55/23/43 70/70/197 72/72/200
s 7
f 48/56/198 44/52/186 63/63/187 71/71/199
s 1
f 52/8/8 56/24/44 72/72/200 64/64/188
