# This file uses centimeters as units for non-parametric coordinates.

mtllib GPS_Arrow.mtl
g default
v -1.263003 1.995809 0.500000
v 1.263003 1.995809 0.500000
v -1.263003 2.995809 0.500000
v 1.263003 2.995809 0.500000
v -1.263003 2.995809 -0.500000
v 1.263003 2.995809 -0.500000
v -1.263003 1.995809 -0.500000
v 1.263003 1.995809 -0.500000
v -1.783630 1.995809 -0.500000
v -1.783630 1.995809 0.500000
v -1.783630 2.995809 0.500000
v -1.783630 2.995809 -0.500000
v -1.263003 1.995809 1.484522
v -1.263003 2.995809 1.484522
v -1.783630 2.995809 1.173762
v -1.783630 1.995809 1.173762
v -1.263003 2.995809 -1.484522
v -1.263003 1.995809 -1.484522
v -1.783630 1.995809 -1.173762
v -1.783630 2.995809 -1.173762
v -3.716013 1.995809 -0.043931
v -3.716013 1.995809 0.043931
v -3.716013 2.995809 0.043931
v -3.716013 2.995809 -0.043931
v -2.836488 1.995809 0.536621
v -2.836488 2.995809 0.536621
v -2.836488 2.995809 -0.536621
v -2.836488 1.995809 -0.536621
vt 0.283891 0.000075
vt 0.575101 0.233428
vt 0.466953 0.072524
vt 0.440034 0.566868
vt 0.539421 0.072517
vt 0.722476 0.072497
vt 0.539414 0.000049
vt 0.440034 0.566865
vt 0.999992 0.000000
vt 0.509487 0.892256
vt 0.006375 0.072573
vt 0.509514 0.892253
vt 0.571905 0.636854
vt 0.439488 0.635805
vt 0.212544 0.000083
vt 0.309667 0.565846
vt 0.350277 0.635109
vt 0.168606 0.000088
vt 0.571911 0.636846
vt 0.439494 0.635808
vt 0.793823 0.072490
vt 0.309667 0.565832
vt 0.350271 0.635098
vt 0.837762 0.072485
vt 0.079424 0.000097
vt 0.433552 0.775186
vt 0.926943 0.072476
vt 0.433535 0.775183
vt 0.497852 0.892164
vt 0.926936 0.000008
vt 0.837754 0.000017
vt 0.000008 0.072574
vt 0.575668 0.776300
vt 0.661128 0.637545
vt 0.497880 0.892162
vt 0.079431 0.072565
vt 0.168613 0.072556
vt 0.006367 0.000105
vt 0.575650 0.776309
vt 0.661123 0.637561
vt 0.702819 0.568928
vt 0.793815 0.000022
vt 0.722469 0.000029
vt 0.572451 0.567906
vt 0.702819 0.568947
vt 0.212552 0.072551
vt 0.283898 0.072544
vt 0.572451 0.567914
vt 0.442684 0.232379
vt 0.466946 0.000056
vt 0.442656 0.232382
vt 0.575073 0.233420
vt 1.000000 0.072468
vt 0.000000 0.000105
vn 0.000000 0.000000 1.000000
vn 0.000000 0.000000 1.000000
vn 0.000000 0.000000 1.000000
vn 0.000000 0.000000 1.000000
vn 0.000000 1.000000 0.000000
vn 0.000000 1.000000 0.000000
vn 0.000000 1.000000 0.000000
vn 0.000000 1.000000 0.000000
vn 0.000000 0.000000 -1.000000
vn 0.000000 0.000000 -1.000000
vn 0.000000 0.000000 -1.000000
vn 0.000000 0.000000 -1.000000
vn 0.000000 -1.000000 0.000000
vn 0.000000 -1.000000 0.000000
vn 0.000000 -1.000000 0.000000
vn 0.000000 -1.000000 0.000000
vn 1.000000 0.000000 0.000000
vn 1.000000 0.000000 0.000000
vn 1.000000 0.000000 0.000000
vn 1.000000 0.000000 0.000000
vn -1.000000 0.000000 0.000000
vn -1.000000 0.000000 0.000000
vn -1.000000 0.000000 0.000000
vn -1.000000 0.000000 0.000000
vn 0.000000 -1.000000 0.000000
vn 0.000000 -1.000000 0.000000
vn 0.000000 -1.000000 0.000000
vn 0.000000 -1.000000 0.000000
vn -0.512535 0.000000 0.858667
vn -0.512535 0.000000 0.858667
vn -0.512535 0.000000 0.858667
vn -0.512535 0.000000 0.858667
vn 0.000000 1.000000 0.000000
vn 0.000000 1.000000 0.000000
vn 0.000000 1.000000 0.000000
vn 0.000000 1.000000 0.000000
vn -0.512535 0.000000 -0.858667
vn -0.512535 0.000000 -0.858667
vn -0.512535 0.000000 -0.858667
vn -0.512535 0.000000 -0.858667
vn 1.000000 0.000000 0.000000
vn 1.000000 0.000000 0.000000
vn 1.000000 0.000000 0.000000
vn 1.000000 0.000000 0.000000
vn 0.000000 1.000000 0.000000
vn 0.000000 1.000000 0.000000
vn 0.000000 1.000000 0.000000
vn 0.000000 1.000000 0.000000
vn -0.488721 0.000000 0.872440
vn -0.488721 0.000000 0.872440
vn -0.488721 0.000000 0.872440
vn -0.488721 0.000000 0.872440
vn 0.000000 -1.000000 0.000000
vn 0.000000 -1.000000 0.000000
vn 0.000000 -1.000000 0.000000
vn 0.000000 -1.000000 0.000000
vn 1.000000 0.000000 0.000000
vn 1.000000 0.000000 0.000000
vn 1.000000 0.000000 0.000000
vn 1.000000 0.000000 0.000000
vn 0.000000 -1.000000 0.000000
vn 0.000000 -1.000000 0.000000
vn 0.000000 -1.000000 0.000000
vn 0.000000 -1.000000 0.000000
vn -0.488721 0.000000 -0.872440
vn -0.488721 0.000000 -0.872440
vn -0.488721 0.000000 -0.872440
vn -0.488721 0.000000 -0.872440
vn 0.000000 1.000000 0.000000
vn 0.000000 1.000000 0.000000
vn 0.000000 1.000000 0.000000
vn 0.000000 1.000000 0.000000
vn 0.000000 -1.000000 0.000000
vn 0.000000 -1.000000 0.000000
vn 0.000000 -1.000000 0.000000
vn 0.000000 -1.000000 0.000000
vn 0.000000 1.000000 0.000000
vn 0.000000 1.000000 0.000000
vn 0.000000 1.000000 0.000000
vn 0.000000 1.000000 0.000000
vn 0.000000 -1.000000 0.000000
vn 0.000000 -1.000000 0.000000
vn 0.000000 -1.000000 0.000000
vn 0.000000 -1.000000 0.000000
vn -0.517734 0.000000 0.855541
vn -0.517734 0.000000 0.855541
vn -0.517734 0.000000 0.855541
vn -0.517734 0.000000 0.855541
vn 0.000000 1.000000 0.000000
vn 0.000000 1.000000 0.000000
vn 0.000000 1.000000 0.000000
vn 0.000000 1.000000 0.000000
vn 0.000000 1.000000 0.000000
vn 0.000000 1.000000 0.000000
vn 0.000000 1.000000 0.000000
vn 0.000000 1.000000 0.000000
vn -0.517734 0.000000 -0.855541
vn -0.517734 0.000000 -0.855541
vn -0.517734 0.000000 -0.855541
vn -0.517734 0.000000 -0.855541
vn 0.000000 -1.000000 0.000000
vn 0.000000 -1.000000 0.000000
vn 0.000000 -1.000000 0.000000
vn 0.000000 -1.000000 0.000000
s off
g Arrow
usemtl initialShadingGroup
f 1/1/1 2/50/2 4/3/3 3/47/4
f 3/4/5 4/51/6 6/52/7 5/44/8
f 5/6/9 6/5/10 8/7/11 7/43/12
f 7/8/13 8/49/14 2/2/15 1/48/16
f 2/50/17 8/7/18 6/5/19 4/3/20
f 21/54/21 22/38/22 23/11/23 24/32/24
f 7/8/25 1/48/26 10/13/27 9/14/28
f 13/15/29 14/46/30 15/37/31 16/18/32
f 3/4/33 5/44/34 12/19/35 11/20/36
f 17/21/37 18/42/38 19/31/39 20/24/40
f 1/1/41 3/47/42 14/46/43 13/15/44
f 3/4/45 11/20/46 15/17/47 14/16/48
f 23/11/49 22/38/50 25/25/51 26/36/52
f 10/13/53 1/48/54 13/45/55 16/40/56
f 5/6/57 7/43/58 18/42/59 17/21/60
f 7/8/61 9/14/62 19/23/63 18/22/64
f 21/9/65 24/53/66 27/27/67 28/30/68
f 12/19/69 5/44/70 17/41/71 20/34/72
f 9/14/73 10/13/74 22/10/75 21/29/76
f 11/20/77 12/19/78 24/12/79 23/35/80
f 10/13/81 16/40/82 25/39/83 22/10/84
f 16/18/85 15/37/86 26/36/87 25/25/88
f 15/17/89 11/20/90 23/35/91 26/26/92
f 12/19/93 20/34/94 27/33/95 24/12/96
f 20/24/97 19/31/98 28/30/99 27/27/100
f 19/23/101 9/14/102 21/29/103 28/28/104
