# This file uses centimeters as units for non-parametric coordinates.

mtllib Door4.mtl
g default
v -0.727850 0.157240 6.236063
v 0.557157 0.157240 6.236063
v -0.727850 1.904657 6.236063
v 0.557157 1.904657 6.236063
v -0.727850 1.904657 5.236063
v 0.557157 1.904657 5.236063
v -0.727850 0.157240 5.236063
v 0.557157 0.157240 5.236063
v -0.635056 0.283426 6.236063
v 0.464363 0.283426 6.236063
v 0.464363 1.778471 6.236063
v -0.635056 1.778471 6.236063
v -0.727850 0.157240 6.433763
v 0.557157 0.157240 6.433763
v 0.464363 0.283426 6.433763
v -0.635056 0.283426 6.433763
vt 0.096636 0.164871
vt 0.087843 0.422077
vt 0.547042 0.932160
vt 0.207136 0.932105
vt 0.178440 0.971113
vt 0.575724 0.971177
vt 0.211873 0.164908
vt 0.280106 0.376809
vt 0.499989 0.164946
vt 0.711863 0.164973
vt 0.164853 0.420246
vt 0.164803 0.165190
vt 0.146463 0.204703
vt 0.128250 0.396032
vt 0.103076 0.381891
vt 0.120252 0.203970
vt 0.226438 0.488323
vt 0.226453 0.892536
vt 0.523701 0.892525
vt 0.523687 0.488312
vt 1.000000 0.000129
vt 0.000021 -0.000000
vt 0.575811 0.430931
vt 0.500011 0.000065
vt 0.547115 0.469939
vt 0.711884 0.000092
vt 0.178527 0.430867
vt 0.207210 0.469884
vt 0.280120 0.164935
vt 0.568236 0.164955
vt 0.000000 0.164881
vt 0.999979 0.165010
vt 0.568222 0.376828
vt 0.211895 0.000027
vn 0.000000 0.000000 1.000000
vn 0.000000 0.000000 1.000000
vn 0.000000 0.000000 1.000000
vn 0.000000 0.000000 1.000000
vn 0.000000 1.000000 0.000000
vn 0.000000 1.000000 0.000000
vn 0.000000 1.000000 0.000000
vn 0.000000 1.000000 0.000000
vn 0.000000 0.000000 -1.000000
vn 0.000000 0.000000 -1.000000
vn 0.000000 0.000000 -1.000000
vn 0.000000 0.000000 -1.000000
vn 0.000000 -1.000000 0.000000
vn 0.000000 -1.000000 0.000000
vn 0.000000 -1.000000 0.000000
vn 0.000000 -1.000000 0.000000
vn 1.000000 0.000000 0.000000
vn 1.000000 0.000000 0.000000
vn 1.000000 0.000000 0.000000
vn 1.000000 0.000000 0.000000
vn -1.000000 0.000000 0.000000
vn -1.000000 0.000000 0.000000
vn -1.000000 0.000000 0.000000
vn -1.000000 0.000000 0.000000
vn 0.000000 0.000000 1.000000
vn 0.000000 0.000000 1.000000
vn 0.000000 0.000000 1.000000
vn 0.000000 0.000000 1.000000
vn -0.000000 0.000000 1.000000
vn -0.000000 0.000000 1.000000
vn -0.000000 0.000000 1.000000
vn -0.000000 0.000000 1.000000
vn 0.000000 0.000000 1.000000
vn 0.000000 0.000000 1.000000
vn 0.000000 0.000000 1.000000
vn 0.000000 0.000000 1.000000
vn 0.000000 0.000000 1.000000
vn 0.000000 0.000000 1.000000
vn 0.000000 0.000000 1.000000
vn 0.000000 0.000000 1.000000
vn 0.000000 -1.000000 0.000000
vn 0.000000 -1.000000 0.000000
vn 0.000000 -1.000000 0.000000
vn 0.000000 -1.000000 0.000000
vn 0.805620 0.592433 0.000000
vn 0.805620 0.592433 0.000000
vn 0.805620 0.592433 0.000000
vn 0.805620 0.592433 0.000000
vn 0.000000 1.000000 0.000000
vn 0.000000 1.000000 0.000000
vn 0.000000 1.000000 0.000000
vn 0.000000 1.000000 0.000000
vn -0.805620 0.592433 0.000000
vn -0.805620 0.592433 0.000000
vn -0.805620 0.592433 0.000000
vn -0.805620 0.592433 0.000000
s off
g Door4
usemtl initialShadingGroup
f 9/17/1 10/20/2 11/19/3 12/18/4
f 3/22/5 4/34/6 6/7/7 5/31/8
f 5/8/9 6/29/10 8/30/11 7/33/12
f 7/10/13 8/9/14 2/24/15 1/26/16
f 2/24/17 8/9/18 6/7/19 4/34/20
f 7/10/21 1/26/22 3/21/23 5/32/24
f 13/13/25 14/14/26 15/15/27 16/16/28
f 2/23/29 4/6/30 11/3/31 10/25/32
f 4/6/33 3/5/34 12/4/35 11/3/36
f 3/5/37 1/27/38 9/28/39 12/4/40
f 1/12/41 2/11/42 14/14/43 13/13/44
f 2/11/45 10/2/46 15/15/47 14/14/48
f 10/2/49 9/1/50 16/16/51 15/15/52
f 9/1/53 1/12/54 13/13/55 16/16/56
