# This file uses centimeters as units for non-parametric coordinates.

mtllib Main4.mtl
g default
v -6.019561 0.075832 6.019561
v 6.019561 0.075832 6.019561
v -6.019561 3.654909 6.019561
v 6.019561 3.654909 6.019561
v -6.019561 3.654909 -6.019561
v 6.019561 3.654909 -6.019561
v -6.019561 0.075832 -6.019561
v 6.019561 0.075832 -6.019561
v -6.019561 4.761699 6.019561
v 6.019561 4.761699 6.019561
v 6.019561 4.761699 -6.019561
v -6.019561 4.761699 -6.019561
v -6.519561 3.654909 6.519561
v 6.519561 3.654909 6.519561
v 6.519561 4.761699 6.519561
v -6.519561 4.761699 6.519561
v 6.519561 3.654909 -6.519561
v 6.519561 4.761699 -6.519561
v -6.519561 3.654909 -6.519561
v -6.519561 4.761699 -6.519561
v -6.019561 9.202024 6.019561
v 6.019561 9.202024 6.019561
v 6.019561 9.202024 -6.019561
v -6.019561 9.202024 -6.019561
v -6.019561 10.457776 6.019561
v 6.019561 10.457776 6.019561
v 6.019561 10.457776 -6.019561
v -6.019561 10.457776 -6.019561
v -7.019561 9.202024 7.019561
v 7.019561 9.202024 7.019561
v 7.019561 10.457776 7.019561
v -7.019561 10.457776 7.019561
v 7.019561 9.202024 -7.019561
v 7.019561 10.457776 -7.019561
v -7.019561 9.202024 -7.019561
v -7.019561 10.457776 -7.019561
vt 0.243608 0.095952
vt 0.498310 0.242325
vt 0.517140 0.808660
vt 0.291703 0.805394
vt 0.271585 0.937038
vt 0.498451 0.941810
vt 0.727362 0.945505
vt 0.979054 0.944131
vt 0.045088 0.809060
vt 0.741081 0.812433
vt 0.730367 0.095862
vt 0.743242 0.484142
vt 0.291630 0.815243
vt 0.516673 0.818889
vt 0.516123 0.843953
vt 0.292128 0.840028
vt 0.740668 0.822813
vt 0.741166 0.847599
vt 0.034895 0.820539
vt 0.035032 0.846130
vt 0.486775 0.000084
vt 0.243395 0.000042
vt 0.730155 0.000126
vt 0.000015 0.000000
vt 0.501538 0.870546
vt 0.272627 0.866854
vt 0.728406 0.875322
vt 0.020941 0.868259
vt 0.272163 0.886916
vt 0.500219 0.891575
vt 0.499762 0.920781
vt 0.272797 0.915602
vt 0.727187 0.896758
vt 0.727820 0.925444
vt 0.000000 0.891686
vt 0.000001 0.922053
vt 0.254085 0.240857
vt 0.254042 0.484236
vt 0.497422 0.484279
vt 0.497465 0.240899
vt 0.243380 0.089806
vt 0.000000 0.089764
vt 0.730139 0.089890
vt 0.486759 0.089848
vt 0.291716 0.850409
vt 0.046590 0.857305
vt 0.741094 0.857448
vt 0.515656 0.854182
vt 0.487001 0.168261
vt 0.730380 0.168216
vt 0.243621 0.168306
vt 0.000241 0.168350
vt 1.000000 0.890340
vt 0.999998 0.920706
vt 0.023451 0.945348
vt 0.973519 0.089932
vt 0.976553 0.867043
vt 0.987710 0.853783
vt 0.973534 0.000168
vt 0.997767 0.816714
vt 0.997903 0.842304
vt 0.973760 0.168171
vt 0.986208 0.805538
vt 0.499867 0.485700
vt 0.486987 0.095907
vt 0.973747 0.095818
vt 0.000228 0.095997
vt 0.741684 0.240768
vn 0.000000 0.000000 1.000000
vn 0.000000 0.000000 1.000000
vn 0.000000 0.000000 1.000000
vn 0.000000 0.000000 1.000000
vn 0.000000 1.000000 0.000000
vn 0.000000 1.000000 0.000000
vn 0.000000 1.000000 -0.000000
vn 0.000000 1.000000 -0.000000
vn 0.000000 0.000000 -1.000000
vn 0.000000 0.000000 -1.000000
vn 0.000000 0.000000 -1.000000
vn 0.000000 0.000000 -1.000000
vn 0.000000 -1.000000 0.000000
vn 0.000000 -1.000000 0.000000
vn 0.000000 -1.000000 0.000000
vn 0.000000 -1.000000 0.000000
vn 1.000000 0.000000 0.000000
vn 1.000000 0.000000 0.000000
vn 1.000000 0.000000 0.000000
vn 1.000000 0.000000 0.000000
vn -1.000000 0.000000 0.000000
vn -1.000000 0.000000 0.000000
vn -1.000000 0.000000 0.000000
vn -1.000000 0.000000 0.000000
vn 0.000000 0.000000 1.000000
vn 0.000000 0.000000 1.000000
vn 0.000000 0.000000 1.000000
vn 0.000000 0.000000 1.000000
vn 1.000000 0.000000 0.000000
vn 1.000000 0.000000 0.000000
vn 1.000000 0.000000 0.000000
vn 1.000000 0.000000 0.000000
vn 0.000000 0.000000 -1.000000
vn 0.000000 0.000000 -1.000000
vn 0.000000 0.000000 -1.000000
vn 0.000000 0.000000 -1.000000
vn -1.000000 0.000000 0.000000
vn -1.000000 0.000000 0.000000
vn -1.000000 0.000000 0.000000
vn -1.000000 0.000000 0.000000
vn 0.000000 -1.000000 0.000000
vn 0.000000 -1.000000 0.000000
vn 0.000000 -1.000000 0.000000
vn 0.000000 -1.000000 0.000000
vn 0.000000 1.000000 -0.000000
vn 0.000000 1.000000 -0.000000
vn 0.000000 1.000000 -0.000000
vn 0.000000 1.000000 -0.000000
vn 0.000000 -1.000000 -0.000000
vn 0.000000 -1.000000 -0.000000
vn 0.000000 1.000000 0.000000
vn 0.000000 1.000000 0.000000
vn 0.000000 -1.000000 -0.000000
vn 0.000000 -1.000000 -0.000000
vn 0.000000 1.000000 0.000000
vn 0.000000 1.000000 0.000000
vn 0.000000 0.000000 1.000000
vn 0.000000 0.000000 1.000000
vn 0.000000 0.000000 1.000000
vn 0.000000 0.000000 1.000000
vn 1.000000 0.000000 0.000000
vn 1.000000 0.000000 0.000000
vn 1.000000 0.000000 0.000000
vn 1.000000 0.000000 0.000000
vn 0.000000 0.000000 -1.000000
vn 0.000000 0.000000 -1.000000
vn 0.000000 0.000000 -1.000000
vn 0.000000 0.000000 -1.000000
vn -1.000000 0.000000 0.000000
vn -1.000000 0.000000 0.000000
vn -1.000000 0.000000 0.000000
vn -1.000000 0.000000 0.000000
vn 0.000000 0.000000 1.000000
vn 0.000000 0.000000 1.000000
vn 0.000000 0.000000 1.000000
vn 0.000000 0.000000 1.000000
vn 1.000000 0.000000 0.000000
vn 1.000000 0.000000 0.000000
vn 1.000000 0.000000 0.000000
vn 1.000000 0.000000 0.000000
vn 0.000000 0.000000 -1.000000
vn 0.000000 0.000000 -1.000000
vn 0.000000 0.000000 -1.000000
vn 0.000000 0.000000 -1.000000
vn -1.000000 0.000000 0.000000
vn -1.000000 0.000000 0.000000
vn -1.000000 0.000000 0.000000
vn -1.000000 0.000000 0.000000
vn 0.000000 -1.000000 0.000000
vn 0.000000 -1.000000 0.000000
vn 0.000000 -1.000000 0.000000
vn 0.000000 -1.000000 0.000000
vn 0.000000 1.000000 0.000000
vn 0.000000 1.000000 0.000000
vn 0.000000 -1.000000 -0.000000
vn 0.000000 -1.000000 -0.000000
vn 0.000000 1.000000 -0.000000
vn 0.000000 -1.000000 -0.000000
vn 0.000000 -1.000000 -0.000000
vn 0.000000 1.000000 -0.000000
s off
g Main4
usemtl initialShadingGroup
f 1/1/1 2/65/2 4/49/3 3/51/4
s 1
f 25/37/5 26/40/6 27/39/7 28/38/8
s off
f 5/62/9 6/50/10 8/11/11 7/66/12
f 7/12/13 8/64/14 2/2/15 1/68/16
f 2/65/17 8/11/18 6/50/19 4/49/20
f 7/67/21 1/1/22 3/51/23 5/52/24
f 13/13/25 14/14/26 15/15/27 16/16/28
f 14/14/29 17/17/30 18/18/31 15/15/32
f 17/17/33 19/60/34 20/61/35 18/18/36
f 19/19/37 13/13/38 16/16/39 20/20/40
s 2
f 3/4/41 4/3/42 14/14/43 13/13/44
s 3
f 10/48/45 9/45/46 16/16/47 15/15/48
s 2
f 4/3/42 6/10/49 17/17/50 14/14/43
s 3
f 11/47/51 10/48/45 15/15/48 18/18/52
s 2
f 6/10/49 5/63/53 19/60/54 17/17/50
s 3
f 12/58/55 11/47/51 18/18/52 20/61/56
s 2
f 5/9/53 3/4/41 13/13/44 19/19/54
s 3
f 9/45/46 12/46/55 20/20/56 16/16/47
s off
f 9/22/57 10/21/58 22/44/59 21/41/60
f 10/21/61 11/23/62 23/43/63 22/44/64
f 11/23/65 12/59/66 24/56/67 23/43/68
f 12/24/69 9/22/70 21/41/71 24/42/72
f 29/29/73 30/30/74 31/31/75 32/32/76
f 30/30/77 33/33/78 34/34/79 31/31/80
f 33/33/81 35/53/82 36/54/83 34/34/84
f 35/35/85 29/29/86 32/32/87 36/36/88
s 4
f 21/26/89 22/25/90 30/30/91 29/29/92
s 1
f 26/6/6 25/5/5 32/32/93 31/31/94
s 4
f 22/25/90 23/27/95 33/33/96 30/30/91
s 1
f 27/7/7 26/6/6 31/31/94 34/34/97
s 4
f 23/27/95 24/57/98 35/53/99 33/33/96
s 1
f 28/8/8 27/7/7 34/34/97 36/54/100
s 4
f 24/28/98 21/26/89 29/29/92 35/35/99
s 1
f 25/5/5 28/55/8 36/36/100 32/32/93
