# This file uses centimeters as units for non-parametric coordinates.

mtllib building1_main.mtl
g default
v -2.702289 0.284116 5.988911
v 2.685800 0.284116 5.988911
v -2.702289 4.125342 5.988911
v 2.685800 4.125342 5.988911
v -2.702289 4.125342 -4.748045
v 2.685800 4.125342 -4.758487
v -2.671039 0.284116 -4.748045
v 2.685800 0.284116 -4.758487
v -2.702289 4.776760 5.988911
v 2.685800 4.776760 5.988911
v 2.685800 4.776760 -4.758487
v -2.702289 4.776760 -4.748045
v -2.764792 4.609148 6.429467
v 3.185798 4.609148 6.429467
v 3.185798 4.776760 6.429467
v -2.764792 4.776760 6.429467
v 3.185798 4.609148 -5.199041
v 3.185798 4.776760 -5.199041
v -2.702291 4.609148 -5.199041
v -2.702291 4.776760 -5.199041
v -2.702289 7.855816 5.988911
v 2.685800 7.855816 5.988911
v 2.685800 7.855816 -4.758487
v -2.702289 7.855816 -4.748045
v 2.685798 7.855816 5.988911
v 2.685798 7.855816 -4.758487
v -2.702289 8.536293 5.988911
v 2.685800 8.536293 5.988911
v 2.685800 8.536293 -4.758487
v -2.702289 8.536293 -4.748045
v -2.702292 8.349310 6.297300
v 3.035798 8.349310 6.297300
v 3.035798 8.536293 6.297300
v -2.702292 8.536293 6.297300
v 3.035798 8.349310 -5.066876
v 3.035798 8.536293 -5.066876
v -2.702292 8.349310 -5.066876
v -2.702292 8.536293 -5.066876
v -2.702290 14.488485 5.988911
v 2.685799 14.488485 5.988911
v 2.685799 14.488485 -4.758487
v -2.702290 14.488485 -4.748045
v -2.702290 15.290780 5.988911
v 2.685799 15.290778 5.988911
v 2.685799 15.290778 -4.758487
v -2.702290 15.290780 -4.748045
v -2.702292 15.223349 6.297300
v 3.035797 15.223349 6.297300
v 3.035797 15.290778 6.297300
v -2.702292 15.290778 6.297300
v 3.035797 15.223349 -5.066876
v 3.035797 15.290778 -5.066876
v -2.702292 15.223349 -5.066876
v -2.702292 15.290778 -5.066876
v -2.702289 19.210973 5.988911
v 2.691810 19.210973 5.988911
v 2.691810 19.210973 -4.758487
v -2.702289 19.210973 -4.748045
v -2.702289 19.887267 5.988911
v -2.702289 19.887267 -4.748045
v 2.691810 19.887267 5.988911
v 2.691810 19.887267 -4.758487
v -2.702291 19.703059 6.209189
v -2.702291 19.703059 -4.978764
v -2.702291 19.887267 6.209189
v -2.702291 19.887267 -4.978764
v 2.941808 19.703059 6.209189
v 2.941808 19.887267 6.209189
v 2.941808 19.703059 -4.978764
v 2.941808 19.887267 -4.978764
vt 0.297955 0.000043
vt 0.749067 0.106593
vt 0.977482 0.145036
vt 0.297941 0.106615
vt 0.000051 0.106580
vt 0.977192 0.447503
vt 0.450883 0.106582
vt 0.302261 0.106579
vt 0.916028 0.012744
vt 0.957694 0.146612
vt 0.952215 0.147206
vt 0.911607 0.015296
vt 0.956449 0.445798
vt 0.950990 0.445117
vt 0.916533 0.578675
vt 0.912084 0.576071
vt 0.762175 0.999976
vt 0.297939 0.124688
vt 0.463995 0.999992
vt 0.000049 0.124653
vt 0.760987 0.253682
vt 0.297929 0.210115
vt 0.769081 0.550926
vt 0.000039 0.210080
vt 0.760982 0.253685
vt 0.769077 0.550927
vt 0.716935 0.115771
vt 0.743391 0.254672
vt 0.737503 0.255257
vt 0.711759 0.117956
vt 0.751229 0.549993
vt 0.745346 0.549535
vt 0.717008 0.687000
vt 0.711927 0.684525
vt 0.447695 0.709036
vt 0.297927 0.228994
vt 0.149515 0.709083
vt 0.000037 0.228959
vt 0.701795 0.243952
vt 0.297908 0.394134
vt 0.701820 0.550075
vt 0.000017 0.394099
vt 0.608932 0.124492
vt 0.679134 0.248352
vt 0.677074 0.248800
vt 0.607576 0.125927
vt 0.678207 0.545729
vt 0.676143 0.545308
vt 0.609140 0.669395
vt 0.607795 0.667929
vt 0.557031 0.817848
vt 0.297905 0.416393
vt 0.258851 0.817830
vt 0.000015 0.416358
vt 0.262506 0.817830
vt 0.297892 0.525156
vt 0.565374 0.818487
vt 0.000002 0.525121
vt 0.686887 0.914575
vt 0.297890 0.543920
vt 0.268390 0.846191
vt 0.559329 0.847110
vt 0.138810 0.903779
vt 0.265377 0.832932
vt 0.266555 0.838504
vt 0.142325 0.907973
vt 0.562568 0.834082
vt 0.561363 0.839647
vt 0.689444 0.903376
vt 0.685968 0.907687
vt 0.451053 0.404774
vt 0.451083 0.106594
vt 0.258858 0.709066
vt 0.557037 0.709084
vt 0.665617 0.542335
vt 0.666186 0.251455
vt 0.149489 0.543943
vt 0.447669 0.543896
vt 0.735137 0.548206
vt 0.727251 0.256563
vt 0.463990 0.914565
vt 0.762170 0.914549
vt 0.935892 0.442268
vt 0.936448 0.149563
vt 0.749071 0.000024
vt 0.450887 0.000012
vt 0.731679 0.697257
vt 0.703259 0.688686
vt 0.624989 0.687314
vt 0.598425 0.669372
vt 0.701554 0.892235
vt 0.301397 0.404469
vt 0.126674 0.892844
vt 0.141730 0.914591
vt 0.624607 0.106584
vt 0.598467 0.124825
vt 0.732145 0.106581
vt 0.703538 0.113576
vt 0.930649 0.000000
vt 0.899822 0.010986
vt 0.931310 0.592660
vt 0.899885 0.582362
vt 0.301427 0.106579
vt 0.000000 0.543885
vt 0.109362 0.818050
vt 0.109202 0.709287
vt 0.706520 0.818086
vt 0.706693 0.709323
vt 0.000026 0.709107
vt 0.000000 0.543967
vt 0.597184 0.709013
vt 0.597158 0.543873
vt 0.314506 1.000000
vt 0.314501 0.914574
vt 0.911664 0.999968
vt 0.911659 0.914541
vt 0.301397 0.000004
vt 0.000064 0.000004
vt 0.898557 0.106602
vt 0.898564 0.000026
vn 0.000000 0.000000 1.000000
vn 0.000000 0.000000 1.000000
vn 0.000000 0.000000 1.000000
vn 0.000000 0.000000 1.000000
vn -0.001944 -0.000008 -0.999998
vn -0.001944 -0.000008 -0.999998
vn -0.001944 -0.000008 -0.999998
vn -0.001944 -0.000008 -0.999998
vn 1.000000 0.000000 0.000000
vn 1.000000 0.000000 0.000000
vn 1.000000 0.000000 0.000000
vn 1.000000 0.000000 0.000000
vn 0.000000 0.000000 1.000000
vn 0.000000 0.000000 1.000000
vn 0.000000 0.000000 1.000000
vn 0.000000 0.000000 1.000000
vn 1.000000 0.000000 0.000000
vn 1.000000 0.000000 0.000000
vn 1.000000 0.000000 0.000000
vn 1.000000 0.000000 0.000000
vn 0.000000 0.000000 -1.000000
vn 0.000000 0.000000 -1.000000
vn 0.000000 0.000000 -1.000000
vn 0.000000 0.000000 -1.000000
vn 0.000000 -0.673285 0.739383
vn 0.000000 -0.673285 0.739383
vn 0.000000 -0.673285 0.739383
vn 0.000000 -0.673285 0.739383
vn 0.000000 1.000000 0.000000
vn 0.000000 1.000000 0.000000
vn 0.000000 1.000000 0.000000
vn 0.000000 1.000000 0.000000
vn 0.695374 -0.718648 0.000000
vn 0.695374 -0.718648 0.000000
vn 0.695374 -0.718648 0.000000
vn 0.695374 -0.718648 0.000000
vn 0.000000 1.000000 0.000000
vn 0.000000 1.000000 0.000000
vn 0.000000 1.000000 0.000000
vn 0.000000 1.000000 0.000000
vn -0.000681 -0.677421 -0.735596
vn -0.000681 -0.677421 -0.735596
vn -0.000681 -0.677421 -0.735596
vn -0.000681 -0.677421 -0.735596
vn 0.000000 1.000000 -0.000000
vn 0.000000 1.000000 -0.000000
vn 0.000000 1.000000 -0.000000
vn 0.000000 1.000000 -0.000000
vn 0.000000 0.000000 1.000000
vn 0.000000 0.000000 1.000000
vn 0.000000 0.000000 1.000000
vn 0.000000 0.000000 1.000000
vn 1.000000 0.000000 0.000000
vn 1.000000 0.000000 0.000000
vn 1.000000 0.000000 0.000000
vn 1.000000 0.000000 0.000000
vn -0.001938 0.000000 -0.999998
vn -0.001938 0.000000 -0.999998
vn -0.001938 0.000000 -0.999998
vn -0.001938 0.000000 -0.999998
vn 0.000000 0.000000 0.000000
vn 0.000000 0.000000 0.000000
vn 0.000000 0.000000 0.000000
vn 0.000000 1.000000 0.000000
vn 0.000000 1.000000 0.000000
vn 0.000000 1.000000 0.000000
vn 0.000000 1.000000 0.000000
vn 0.000000 -0.000000 -0.000000
vn 0.000000 -0.000000 -0.000000
vn 0.000000 -0.009860 -0.999951
vn 0.000000 0.000000 1.000000
vn 0.000000 0.000000 1.000000
vn 0.000000 0.000000 1.000000
vn 0.000000 0.000000 1.000000
vn 1.000000 0.000000 0.000000
vn 1.000000 0.000000 0.000000
vn 1.000000 0.000000 0.000000
vn 1.000000 0.000000 0.000000
vn 0.000000 0.000000 -1.000000
vn 0.000000 0.000000 -1.000000
vn 0.000000 0.000000 -1.000000
vn 0.000000 0.000000 -1.000000
vn 0.000000 -0.529943 0.848033
vn 0.000000 -0.529943 0.848033
vn 0.000000 -0.529943 0.848033
vn 0.000000 -0.529943 0.848033
vn 0.000000 1.000000 -0.000001
vn 0.000000 1.000000 -0.000001
vn 0.000000 1.000000 -0.000001
vn 0.000000 1.000000 -0.000001
vn 0.815680 -0.578503 0.000000
vn 0.815680 -0.578503 0.000000
vn 0.815680 -0.578503 0.000000
vn 0.815680 -0.578503 0.000000
vn 0.000000 1.000000 0.000000
vn 0.000000 1.000000 0.000000
vn 0.000000 1.000000 0.000000
vn 0.000000 1.000000 0.000000
vn -0.000792 -0.536150 -0.844123
vn -0.000792 -0.536150 -0.844123
vn -0.000792 -0.536150 -0.844123
vn -0.000792 -0.536150 -0.844122
vn 0.000000 1.000000 0.000001
vn 0.000000 1.000000 0.000001
vn 0.000000 1.000000 0.000001
vn 0.000000 1.000000 0.000001
vn 0.000000 0.000000 1.000000
vn 0.000000 0.000000 1.000000
vn 0.000000 0.000000 1.000000
vn 0.000000 0.000000 1.000000
vn 1.000000 0.000000 0.000000
vn 1.000000 0.000000 0.000000
vn 1.000000 0.000000 0.000000
vn 1.000000 0.000000 0.000000
vn -0.001938 -0.000000 -0.999998
vn -0.001938 -0.000000 -0.999998
vn -0.001938 -0.000000 -0.999998
vn -0.001938 -0.000000 -0.999998
vn 0.000000 0.000000 1.000000
vn 0.000000 0.000000 1.000000
vn 0.000000 0.000000 1.000000
vn 0.000000 0.000000 1.000000
vn 1.000000 0.000000 0.000000
vn 1.000000 0.000000 0.000000
vn 1.000000 0.000000 0.000000
vn 1.000000 0.000000 0.000000
vn 0.000000 0.000000 -1.000000
vn 0.000000 0.000000 -1.000000
vn 0.000000 0.000000 -1.000000
vn 0.000000 0.000000 -1.000000
vn 0.000000 -0.386961 0.922096
vn 0.000000 -0.386961 0.922096
vn 0.000000 -0.386961 0.922096
vn 0.000000 -0.386961 0.922096
vn 0.000000 1.000000 -0.000002
vn 0.000000 1.000000 -0.000002
vn 0.000000 1.000000 -0.000002
vn 0.000000 1.000000 -0.000002
vn 0.902831 -0.429996 0.000000
vn 0.902831 -0.429996 0.000000
vn 0.902831 -0.429996 0.000000
vn 0.902831 -0.429996 0.000000
vn 0.000000 1.000000 0.000000
vn 0.000000 1.000000 0.000000
vn 0.000000 1.000000 0.000000
vn 0.000000 1.000000 0.000000
vn -0.000863 -0.392336 -0.919822
vn -0.000863 -0.392336 -0.919822
vn -0.000863 -0.392336 -0.919822
vn -0.000863 -0.392336 -0.919822
vn 0.000000 1.000000 0.000003
vn 0.000000 1.000000 0.000003
vn 0.000000 1.000000 0.000003
vn 0.000000 1.000000 0.000003
vn 0.000000 0.000000 1.000000
vn 0.000000 0.000000 1.000000
vn 0.000000 0.000000 1.000000
vn 0.000000 0.000000 1.000000
vn 0.999999 -0.001533 0.000000
vn 0.999999 -0.001533 0.000000
vn 0.999999 -0.001533 0.000000
vn 0.999999 -0.001533 0.000000
vn -0.001937 0.000001 -0.999998
vn -0.001937 0.000001 -0.999998
vn -0.001937 0.000001 -0.999998
vn -0.001937 0.000001 -0.999998
vn 0.000000 1.000000 0.000000
vn 0.000000 1.000000 0.000000
vn 0.000000 1.000000 0.000000
vn 0.000000 1.000000 0.000000
vn 0.000000 0.000000 1.000000
vn 0.000000 0.000000 1.000000
vn 0.000000 0.000000 1.000000
vn 0.000000 0.000000 1.000000
vn 1.000000 0.000000 0.000000
vn 1.000000 0.000000 0.000000
vn 1.000000 0.000000 0.000000
vn 1.000000 0.000000 0.000000
vn 0.000000 0.000000 -1.000000
vn 0.000000 0.000000 -1.000000
vn 0.000000 0.000000 -1.000000
vn 0.000000 0.000000 -1.000000
vn 0.000000 -0.408572 0.912726
vn 0.000000 -0.408572 0.912726
vn 0.000000 -0.408572 0.912726
vn 0.000000 -0.408572 0.912726
vn 0.000000 1.000000 0.000002
vn 0.000000 1.000000 0.000002
vn 0.000000 1.000000 0.000002
vn 0.000000 1.000000 0.000002
vn 0.891543 -0.452937 0.000000
vn 0.891543 -0.452937 0.000000
vn 0.891543 -0.452937 0.000000
vn 0.891543 -0.452937 0.000000
vn 0.000000 1.000000 0.000000
vn 0.000000 1.000000 0.000000
vn 0.000000 1.000000 0.000000
vn 0.000000 1.000000 0.000000
vn -0.000860 -0.416410 -0.909176
vn -0.000860 -0.416410 -0.909176
vn -0.000860 -0.416410 -0.909176
vn -0.000860 -0.416410 -0.909176
vn 0.000000 1.000000 -0.000004
vn 0.000000 1.000000 -0.000004
vn 0.000000 1.000000 -0.000004
vn 0.000000 1.000000 -0.000004
vn -1.000000 0.000000 0.000004
vn -1.000000 0.000000 0.000004
vn -1.000000 0.000000 0.000004
vn -1.000000 0.000000 0.000004
vn -0.990085 0.000000 -0.140466
vn -0.990085 0.000000 -0.140466
vn -0.990085 0.000000 -0.140466
vn -0.990085 0.000000 -0.140466
vn -1.000000 0.000000 -0.000009
vn -1.000000 0.000000 -0.000009
vn -1.000000 0.000000 -0.000009
vn -1.000000 0.000000 -0.000009
vn -1.000000 0.000000 -0.000006
vn -1.000000 0.000000 -0.000006
vn -1.000000 0.000000 -0.000006
vn -1.000000 0.000000 -0.000006
vn -1.000000 0.000000 -0.000009
vn -1.000000 0.000000 -0.000009
vn -1.000000 0.000000 -0.000009
vn -1.000000 0.000000 -0.000009
vn -1.000000 0.000000 0.000008
vn -1.000000 0.000000 0.000008
vn -1.000000 0.000000 0.000008
vn -1.000000 0.000000 0.000008
vn -1.000000 0.000000 0.000006
vn -1.000000 0.000000 0.000006
vn -1.000000 0.000000 0.000006
vn -1.000000 0.000000 0.000006
vn -1.000000 0.000000 0.000009
vn -1.000000 0.000000 0.000009
vn -1.000000 0.000000 0.000009
vn -1.000000 0.000000 0.000009
vn -0.999991 -0.004068 -0.001455
vn -0.999991 -0.004068 -0.001455
vn -0.999991 -0.004068 -0.001455
vn -0.999991 -0.004068 -0.001455
vn -1.000000 0.000000 0.000000
vn -1.000000 0.000000 0.000000
vn -1.000000 0.000000 0.000000
vn -1.000000 0.000000 0.000000
vn -1.000000 -0.000000 0.000000
vn -1.000000 -0.000000 0.000000
vn -1.000000 -0.000000 0.000000
vn -1.000000 -0.000000 0.000000
vn -1.000000 0.000000 0.000000
vn -1.000000 0.000000 0.000000
vn -1.000000 0.000000 0.000000
vn -1.000000 0.000000 0.000000
vn -1.000000 0.000000 0.000000
vn -1.000000 0.000000 0.000000
vn -1.000000 0.000000 0.000000
vn -1.000000 0.000000 0.000000
vn -1.000000 0.000000 0.000000
vn -1.000000 0.000000 0.000000
vn -1.000000 0.000000 0.000000
vn -1.000000 0.000000 0.000000
vn -1.000000 0.000000 0.000000
vn -1.000000 0.000000 0.000000
vn -1.000000 0.000000 0.000000
vn -1.000000 0.000000 0.000000
vn -1.000000 0.000000 0.000000
vn -1.000000 0.000000 0.000000
vn -1.000000 0.000000 0.000000
vn -1.000000 0.000000 0.000000
s off
g main_building
usemtl initialShadingGroup
f 1/119/1 2/2/2 4/85/3 3/120/4
f 5/117/5 6/86/6 8/7/7 7/8/8
f 2/2/9 8/7/10 6/86/11 4/85/12
f 13/9/13 14/10/14 15/11/15 16/12/16
f 14/10/17 17/13/18 18/14/19 15/11/20
f 17/13/21 19/15/22 20/16/23 18/14/24
f 3/99/25 4/3/26 14/10/27 13/9/28
f 10/84/29 9/100/30 16/12/31 15/11/32
f 4/3/33 6/6/34 17/13/35 14/10/36
f 11/83/37 10/84/38 15/11/39 18/14/40
f 6/6/41 5/101/42 19/15/43 17/13/44
f 12/102/45 11/83/46 18/14/47 20/16/48
f 9/115/49 10/17/50 22/82/51 21/116/52
f 10/17/53 11/19/54 23/81/55 22/82/56
f 11/19/57 12/113/58 24/114/59 23/81/60
f 21/97/61 22/21/62 25/25/63
f 22/21/64 23/23/65 26/26/66 25/25/67
f 23/23/68 24/87/69 26/26/70
f 31/27/71 32/28/72 33/29/73 34/30/74
f 32/28/75 35/31/76 36/32/77 33/29/78
f 35/31/79 37/33/80 38/34/81 36/32/82
f 21/97/83 25/25/84 32/28/85 31/27/86
f 28/80/87 27/98/88 34/30/89 33/29/90
f 25/25/91 26/26/92 35/31/93 32/28/94
f 29/79/95 28/80/96 33/29/97 36/32/98
f 26/26/99 24/87/100 37/33/101 35/31/102
f 30/88/103 29/79/104 36/32/105 38/34/106
f 27/111/107 28/35/108 40/78/109 39/112/110
f 28/35/111 29/37/112 41/77/113 40/78/114
f 29/37/115 30/109/116 42/110/117 41/77/118
f 47/43/119 48/44/120 49/45/121 50/46/122
f 48/44/123 51/47/124 52/48/125 49/45/126
f 51/47/127 53/49/128 54/50/129 52/48/130
f 39/95/131 40/39/132 48/44/133 47/43/134
f 44/76/135 43/96/136 50/46/137 49/45/138
f 40/39/139 41/41/140 51/47/141 48/44/142
f 45/75/143 44/76/144 49/45/145 52/48/146
f 41/41/147 42/89/148 53/49/149 51/47/150
f 46/90/151 45/75/152 52/48/153 54/50/154
f 43/107/155 44/51/156 56/74/157 55/108/158
f 44/51/159 45/53/160 57/73/161 56/74/162
f 45/53/163 46/105/164 58/106/165 57/73/166
f 60/92/167 59/103/168 61/72/169 62/71/170
f 63/63/171 67/64/172 68/65/173 65/66/174
f 67/64/175 69/67/176 70/68/177 68/65/178
f 69/67/179 64/69/180 66/70/181 70/68/182
f 55/93/183 56/55/184 67/64/185 63/63/186
f 61/61/187 59/94/188 65/66/189 68/65/190
f 56/55/191 57/57/192 69/67/193 67/64/194
f 62/62/195 61/61/196 68/65/197 70/68/198
f 57/57/199 58/91/200 64/69/201 69/67/202
f 60/59/203 62/62/204 70/68/205 66/70/206
f 19/15/207 5/101/208 12/102/209 20/16/210
f 3/99/211 13/9/212 16/12/213 9/100/214
f 21/97/215 31/27/216 34/30/217 27/98/218
f 39/95/219 47/43/220 50/46/221 43/96/222
f 55/93/223 63/63/224 65/66/225 59/94/226
f 64/69/227 58/91/228 60/59/229 66/70/230
f 53/49/231 42/89/232 46/90/233 54/50/234
f 37/33/235 24/87/236 30/88/237 38/34/238
f 1/1/239 3/4/240 5/5/241 7/118/242
f 9/18/243 21/22/244 24/24/245 12/20/246
f 27/36/247 39/40/248 42/42/249 30/38/250
f 43/52/251 55/56/252 58/58/253 46/54/254
f 3/4/255 9/18/256 12/20/257 5/5/258
f 21/22/259 27/36/260 30/38/261 24/24/262
f 39/40/263 43/52/264 46/54/265 42/42/266
f 55/56/267 59/60/268 60/104/269 58/58/270
