# This file uses centimeters as units for non-parametric coordinates.

mtllib door.mtl
g default
v 0.878989 0.249803 1.021461
v 1.153116 0.249803 1.021461
v 0.878989 0.564192 1.021461
v 1.153116 0.564192 1.021461
v 0.878989 0.564192 -1.894421
v 1.153116 0.564192 -1.894421
v 0.878989 0.249803 -1.894421
v 1.153116 0.249803 -1.894421
v 0.913453 -0.610723 2.347244
v 1.149685 -0.610723 2.347244
v 0.913453 0.350611 2.347244
v 1.149685 0.350611 2.347244
v 0.913453 0.350611 1.589310
v 1.149685 0.350611 1.589310
v 0.913453 -0.610723 1.589310
v 1.149685 -0.610723 1.589310
v -1.173885 0.249803 1.021461
v -0.899759 0.249803 1.021461
v -1.173885 0.564192 1.021461
v -0.899759 0.564192 1.021461
v -1.173885 0.564192 -1.894421
v -0.899759 0.564192 -1.894421
v -1.173885 0.249803 -1.894421
v -0.899759 0.249803 -1.894421
vt 0.958452 1.000000
vt 0.052159 0.837660
vt 0.061579 0.921180
vt 0.000000 0.961383
vt 0.728957 0.905040
vt 0.779804 0.961256
vt 0.719536 0.821519
vt 0.781116 0.781316
vt 0.713515 0.173200
vt 0.448027 0.036142
vt 0.218866 0.044382
vt 0.183449 0.000344
vt 0.225471 0.226004
vt 0.182768 0.262146
vt 0.454632 0.217765
vt 0.490048 0.261802
vt 0.041407 0.060124
vt 0.000000 0.000000
vt 0.291664 0.333859
vt 0.124421 0.051426
vt 0.957909 0.333730
vt 0.140018 0.720308
vt 0.957895 0.261896
vt 0.057039 0.729017
vt 0.000488 0.778727
vt 0.291651 0.262025
vt 0.180193 0.781414
vt 0.180275 0.000966
vt 0.713531 0.000021
vt 0.490730 0.000000
vt 0.493878 0.000000
vt 0.493862 0.173179
vt 0.958565 0.333756
vt 0.001312 0.781443
vt 0.886731 0.333743
vt 0.886618 0.999988
vn 0.000000 0.000000 1.000000
vn 0.000000 0.000000 1.000000
vn 0.000000 0.000000 1.000000
vn 0.000000 0.000000 1.000000
vn 0.000000 1.000000 0.000000
vn 0.000000 1.000000 0.000000
vn 0.000000 1.000000 0.000000
vn 0.000000 1.000000 0.000000
vn 0.000000 0.000000 -1.000000
vn 0.000000 0.000000 -1.000000
vn 0.000000 0.000000 -1.000000
vn 0.000000 0.000000 -1.000000
vn 0.000000 -1.000000 0.000000
vn 0.000000 -1.000000 0.000000
vn 0.000000 -1.000000 0.000000
vn 0.000000 -1.000000 0.000000
vn 1.000000 0.000000 0.000000
vn 1.000000 0.000000 0.000000
vn 1.000000 0.000000 0.000000
vn 1.000000 0.000000 0.000000
vn -1.000000 0.000000 0.000000
vn -1.000000 0.000000 0.000000
vn -1.000000 0.000000 0.000000
vn -1.000000 0.000000 0.000000
vn 0.000000 0.000000 1.000000
vn 0.000000 0.000000 1.000000
vn 0.000000 0.000000 1.000000
vn 0.000000 0.000000 1.000000
vn 0.000000 1.000000 0.000000
vn 0.000000 1.000000 0.000000
vn 0.000000 1.000000 0.000000
vn 0.000000 1.000000 0.000000
vn 0.000000 0.000000 -1.000000
vn 0.000000 0.000000 -1.000000
vn 0.000000 0.000000 -1.000000
vn 0.000000 0.000000 -1.000000
vn 0.000000 -1.000000 0.000000
vn 0.000000 -1.000000 0.000000
vn 0.000000 -1.000000 0.000000
vn 0.000000 -1.000000 0.000000
vn 1.000000 0.000000 0.000000
vn 1.000000 0.000000 0.000000
vn 1.000000 0.000000 0.000000
vn 1.000000 0.000000 0.000000
vn -1.000000 0.000000 0.000000
vn -1.000000 0.000000 0.000000
vn -1.000000 0.000000 0.000000
vn -1.000000 0.000000 0.000000
vn 0.000000 0.000000 1.000000
vn 0.000000 0.000000 1.000000
vn 0.000000 0.000000 1.000000
vn 0.000000 0.000000 1.000000
vn 0.000000 1.000000 0.000000
vn 0.000000 1.000000 0.000000
vn 0.000000 1.000000 0.000000
vn 0.000000 1.000000 0.000000
vn 0.000000 0.000000 -1.000000
vn 0.000000 0.000000 -1.000000
vn 0.000000 0.000000 -1.000000
vn 0.000000 0.000000 -1.000000
vn 0.000000 -1.000000 0.000000
vn 0.000000 -1.000000 0.000000
vn 0.000000 -1.000000 0.000000
vn 0.000000 -1.000000 0.000000
vn 1.000000 0.000000 0.000000
vn 1.000000 0.000000 0.000000
vn 1.000000 0.000000 0.000000
vn 1.000000 0.000000 0.000000
vn -1.000000 0.000000 0.000000
vn -1.000000 0.000000 0.000000
vn -1.000000 0.000000 0.000000
vn -1.000000 0.000000 0.000000
s off
g door
usemtl initialShadingGroup
f 1/34/1 2/2/2 4/3/3 3/4/4
f 3/4/5 4/3/6 6/5/7 5/6/8
f 5/6/9 6/5/10 8/7/11 7/8/12
f 7/8/13 8/7/14 2/2/15 1/34/16
f 2/2/17 8/7/18 6/5/19 4/3/20
f 7/33/21 1/1/22 3/36/23 5/35/24
f 9/30/25 10/10/26 12/11/27 11/12/28
f 11/12/29 12/11/30 14/13/31 13/14/32
f 13/14/33 14/13/34 16/15/35 15/16/36
f 15/16/37 16/15/38 10/10/39 9/30/40
f 10/10/41 16/15/42 14/13/43 12/11/44
f 15/29/45 9/9/46 11/32/47 13/31/48
f 17/17/49 18/18/50 20/28/51 19/20/52
f 19/20/53 20/28/54 22/27/55 21/22/56
f 21/22/57 22/27/58 24/25/59 23/24/60
f 23/24/61 24/25/62 18/18/63 17/17/64
f 18/26/65 24/23/66 22/21/67 20/19/68
f 23/24/69 17/17/70 19/20/71 21/22/72
