# This file uses centimeters as units for non-parametric coordinates.

mtllib Main.mtl
g default
v -1.084060 -0.631914 2.753810
v 1.084060 -0.631914 2.753810
v -1.084060 0.631914 2.753810
v 1.084060 0.631914 2.753810
v -1.084060 0.631914 -2.753810
v 1.084060 0.631914 -2.753810
v -1.084060 -0.631914 -2.753810
v 1.084060 -0.631914 -2.753810
v -1.084060 0.887091 2.753810
v 1.084060 0.887091 2.753810
v 1.084060 0.887091 -2.753810
v -1.084060 0.887091 -2.753810
v -1.184060 0.731914 2.853809
v 1.184060 0.731914 2.853809
v 1.184060 0.787091 2.853809
v -1.184060 0.787091 2.853809
v 1.184060 0.731914 -2.853809
v 1.184060 0.787091 -2.853809
v -1.184060 0.731914 -2.853809
v -1.184060 0.787091 -2.853809
v -1.084060 1.645100 2.753810
v 1.084060 1.645100 2.753810
v 1.084060 1.645100 -2.753810
v -1.084060 1.645100 -2.753810
v -1.084060 1.906638 2.753810
v 1.084060 1.906638 2.753810
v 1.084060 1.906638 -2.753810
v -1.084060 1.906638 -2.753810
v -1.184060 1.745100 2.853809
v 1.184060 1.745100 2.853809
v 1.184060 1.806637 2.853809
v -1.184060 1.806637 2.853809
v 1.184060 1.745100 -2.853809
v 1.184060 1.806637 -2.853809
v -1.184060 1.745100 -2.853809
v -1.184060 1.806637 -2.853809
v -1.084060 2.587344 2.753810
v 1.084060 2.587344 2.753810
v 1.084060 2.587344 -2.753810
v -1.084060 2.587344 -2.753810
v -1.084060 2.828598 2.753810
v 1.084060 2.828598 2.753810
v 1.084060 2.828598 -2.753810
v -1.084060 2.828598 -2.753810
v -1.284060 2.687344 2.953810
v 1.284060 2.687344 2.953810
v 1.284060 2.728598 2.953810
v -1.284060 2.728598 2.953810
v 1.284060 2.687344 -2.953810
v 1.284060 2.728598 -2.953810
v -1.284060 2.687344 -2.953810
v -1.284060 2.728598 -2.953810
v -1.084060 3.807217 2.753810
v 1.084060 3.807217 2.753810
v 1.084060 3.807217 -2.753810
v -1.084060 3.807217 -2.753810
v -1.084060 4.120343 2.753810
v 1.084060 4.120343 2.753810
v 1.084060 4.120343 -2.753810
v -1.084060 4.120343 -2.753810
v -1.184060 3.907218 2.853809
v 1.184060 3.907218 2.853809
v 1.184060 4.020343 2.853809
v -1.184060 4.020343 2.853809
v 1.184060 3.907218 -2.853809
v 1.184060 4.020343 -2.853809
v -1.184060 3.907218 -2.853809
v -1.184060 4.020343 -2.853809
v -1.084060 5.017777 2.753810
v 1.084060 5.017777 2.753810
v 1.084060 5.017777 -2.753810
v -1.084060 5.017777 -2.753810
v -1.084060 5.230412 2.753810
v 1.084060 5.230412 2.753810
v 1.084060 5.230412 -2.753810
v -1.084060 5.230412 -2.753810
v -1.184060 5.117778 2.853809
v 1.184060 5.117778 2.853809
v 1.184060 5.130412 2.853809
v -1.184060 5.130412 2.853809
v 1.184060 5.117778 -2.853809
v 1.184060 5.130412 -2.853809
v -1.184060 5.117778 -2.853809
v -1.184060 5.130412 -2.853809
v -1.084060 0.631916 1.464873
v -1.084060 0.631916 -1.464873
v -1.084060 -0.631912 -1.464873
v -1.084060 -0.631912 1.464873
v 1.084060 -0.631912 -1.464873
v 1.084060 -0.631912 1.464873
v 1.084060 0.631916 1.464873
v 1.084060 0.631916 -1.464873
v 1.184060 0.731916 1.518067
v 1.184060 0.731916 -1.518067
v 1.184060 0.787093 1.518067
v 1.184060 0.787093 -1.518067
v 1.084060 0.887093 1.464873
v 1.084060 0.887093 -1.464873
v 1.084060 1.645102 1.464873
v 1.084060 1.645102 -1.464873
v 1.184060 1.745103 1.518067
v 1.184060 1.745103 -1.518067
v 1.184060 1.806639 1.518067
v 1.184060 1.806639 -1.518067
v 1.084060 1.906640 1.464873
v 1.084060 1.906640 -1.464873
v 1.084060 2.587347 1.464873
v 1.084060 2.587347 -1.464873
v 1.284060 2.687346 1.571261
v 1.284060 2.687346 -1.571261
v 1.284060 2.728600 1.571261
v 1.284060 2.728600 -1.571261
v 1.084060 2.828600 1.464873
v 1.084060 2.828600 -1.464873
v 1.084060 3.807219 1.464873
v 1.084060 3.807219 -1.464873
v 1.184060 3.907220 1.518067
v 1.184060 3.907220 -1.518067
v 1.184060 4.020345 1.518067
v 1.184060 4.020345 -1.518067
v 1.084060 4.120345 1.464873
v 1.084060 4.120345 -1.464873
v 1.084060 5.017780 1.464873
v 1.084060 5.017780 -1.464873
v 1.184060 5.117779 1.518067
v 1.184060 5.117779 -1.518067
v 1.184060 5.130412 1.518067
v 1.184060 5.130412 -1.518067
v 1.084060 5.230412 1.464873
v 1.084060 5.230412 -1.464873
v -1.084060 5.230412 1.464873
v -1.084060 5.230412 -1.464873
v -1.184060 5.130412 1.518067
v -1.184060 5.130412 -1.518067
v -1.184060 5.117778 1.518067
v -1.184060 5.117778 -1.518067
v -1.084060 5.017777 1.464873
v -1.084060 5.017777 -1.464873
v -1.084060 4.120343 1.464873
v -1.084060 4.120343 -1.464873
v -1.184060 4.020343 1.518067
v -1.184060 4.020343 -1.518067
v -1.184060 3.907218 1.518067
v -1.184060 3.907218 -1.518067
v -1.084060 3.807217 1.464873
v -1.084060 3.807217 -1.464873
v -1.084060 2.828598 1.464873
v -1.084060 2.828598 -1.464873
v -1.284060 2.728598 1.571261
v -1.284060 2.728598 -1.571261
v -1.284060 2.687344 1.571261
v -1.284060 2.687344 -1.571261
v -1.084060 2.587344 1.464873
v -1.084060 2.587344 -1.464873
v -1.084060 1.906638 1.464873
v -1.084060 1.906638 -1.464873
v -1.184060 1.806637 1.518067
v -1.184060 1.806637 -1.518067
v -1.184060 1.745100 1.518067
v -1.184060 1.745100 -1.518067
v -1.084060 1.645100 1.464873
v -1.084060 1.645100 -1.464873
v -1.084060 0.887091 1.464873
v -1.084060 0.887091 -1.464873
v -1.184060 0.787091 1.518067
v -1.184060 0.787091 -1.518067
v -1.184060 0.731914 1.518067
v -1.184060 0.731914 -1.518067
v -1.084060 6.345640 2.753810
v 1.084060 6.345640 2.753810
v 1.084060 6.345640 1.464873
v -1.084060 6.345640 1.464873
v -1.084060 6.345640 -1.464873
v 1.084060 6.345640 -1.464873
v 1.084060 6.345640 -2.753810
v -1.084060 6.345640 -2.753810
v -1.084060 6.948576 2.753810
v 1.084060 6.948576 2.753810
v 1.084060 6.948576 1.464873
v -1.084060 6.948576 1.464873
v -1.084060 6.948576 -1.464873
v 1.084060 6.948576 -1.464873
v 1.084060 6.948576 -2.753810
v -1.084060 6.948576 -2.753810
v -1.084060 7.421968 2.753810
v 1.084060 7.421968 2.753810
v 1.084060 7.421968 1.464873
v -1.084060 7.421968 1.464873
v 1.384060 6.545640 -1.464873
v 1.384060 6.545640 -3.053810
v 1.384060 6.748576 -3.053810
v 1.384060 6.748576 -1.464873
v -1.384060 6.545640 -3.053810
v -1.384060 6.748576 -3.053810
v -1.384060 6.545640 -1.464873
v -1.384060 6.748576 -1.464873
v 1.384060 6.545640 1.464873
v 1.384060 6.748576 1.464873
v -1.384060 6.545640 1.464873
v -1.384060 6.748576 1.464873
v -1.384060 7.148576 3.053810
v 1.384060 7.148576 3.053810
v 1.384060 7.221968 3.053810
v -1.384060 7.221968 3.053810
v 1.384060 7.148576 1.464873
v 1.384060 7.221968 1.464873
v -1.384060 7.148576 1.464873
v -1.384060 7.221968 1.464873
vt 0.544818 0.055583
vt 0.455198 0.047737
vt 0.980575 0.112130
vt 0.979249 0.004868
vt 0.686597 0.153348
vt 0.686585 0.266632
vt 0.688367 0.342716
vt 0.693675 0.078244
vt 0.577859 0.358700
vt 0.978979 0.392395
vt 0.460985 0.305555
vt 0.545398 0.316720
vt 0.558272 0.107018
vt 0.436795 0.109221
vt 0.980699 0.174783
vt 0.627185 0.081968
vt 0.971614 0.784262
vt 0.973556 0.112934
vt 0.970713 0.112952
vt 0.968696 0.784256
vt 0.973230 0.172016
vt 0.970282 0.172000
vt 0.972000 0.391651
vt 0.972305 0.493822
vt 0.969425 0.493829
vt 0.969121 0.391659
vt 0.968845 0.713632
vt 0.971763 0.713639
vt 0.792593 0.049490
vt 0.664026 0.046715
vt 0.827417 0.127952
vt 0.962449 0.493095
vt 0.802170 0.368959
vt 0.961372 0.710804
vt 0.959470 0.112253
vt 0.958163 0.004876
vt 0.959605 0.175040
vt 0.687755 0.354064
vt 0.957887 0.392678
vt 0.665958 0.138637
vt 0.950475 0.784787
vt 0.952455 0.113058
vt 0.949286 0.113078
vt 0.947223 0.784779
vt 0.952141 0.172274
vt 0.948855 0.172257
vt 0.950912 0.391927
vt 0.951221 0.494376
vt 0.948011 0.494385
vt 0.947703 0.391935
vt 0.947389 0.714200
vt 0.950641 0.714208
vt 0.518319 0.721915
vt 0.508077 0.629430
vt 0.576418 0.726390
vt 0.941039 0.493643
vt 0.791796 0.704983
vt 0.939921 0.711372
vt 0.879969 0.681569
vt 0.883100 0.787856
vt 0.879687 0.619288
vt 0.804753 0.590930
vt 0.883552 0.398607
vt 0.561637 0.572903
vt 0.895573 0.000022
vt 0.890887 0.679668
vt 0.893017 0.679623
vt 0.897805 0.000042
vt 0.891738 0.624979
vt 0.894012 0.625011
vt 0.894424 0.400155
vt 0.893013 0.300059
vt 0.895194 0.300044
vt 0.896604 0.400141
vt 0.897114 0.074833
vt 0.894881 0.074812
vt 0.219270 0.265716
vt 0.083636 0.265040
vt 0.262487 0.345853
vt 0.906059 0.301582
vt 0.230157 0.596161
vt 0.909165 0.080699
vt 0.936314 0.113102
vt 0.935058 0.004933
vt 0.936594 0.176855
vt 0.111096 0.573304
vt 0.935038 0.394690
vt 0.088593 0.362128
vt 0.927409 0.788540
vt 0.929330 0.113916
vt 0.923533 0.113978
vt 0.921458 0.788516
vt 0.929159 0.174110
vt 0.923144 0.174081
vt 0.928094 0.393885
vt 0.928499 0.498326
vt 0.922628 0.498356
vt 0.922223 0.393901
vt 0.921733 0.718256
vt 0.927685 0.718280
vt 0.625087 0.538482
vt 0.626588 0.405415
vt 0.545446 0.578633
vt 0.915685 0.497555
vt 0.298667 0.548941
vt 0.914303 0.715430
vt 0.999957 0.111189
vt 0.998491 0.004810
vt 1.000000 0.172844
vt 0.318584 0.431599
vt 0.998223 0.390251
vt 0.531352 0.409219
vt 0.991010 0.780304
vt 0.992907 0.111988
vt 0.992253 0.111993
vt 0.990339 0.780304
vt 0.992497 0.170065
vt 0.991819 0.170060
vt 0.991211 0.389561
vt 0.991462 0.489622
vt 0.990799 0.489623
vt 0.990548 0.389562
vt 0.990410 0.709341
vt 0.991082 0.709342
vt 0.074178 0.179836
vt 0.073429 0.091903
vt 0.125164 0.193434
vt 0.330255 0.106822
vt 0.329540 0.201316
vt 0.126261 0.075407
vt 0.565185 0.254688
vt 0.979599 0.556012
vt 0.442240 0.257246
vt 0.377622 0.279003
vt 0.972401 0.332223
vt 0.969452 0.332213
vt 0.961984 0.329446
vt 0.786536 0.287811
vt 0.951312 0.332390
vt 0.948024 0.332379
vt 0.940561 0.329613
vt 0.738289 0.761454
vt 0.893857 0.455741
vt 0.896134 0.455759
vt 0.908183 0.461457
vt 0.210214 0.509368
vt 0.928448 0.333558
vt 0.922431 0.333544
vt 0.914998 0.330801
vt 0.383401 0.530505
vt 0.991636 0.330938
vt 0.990958 0.330937
vt 0.270376 0.214099
vt 0.824093 0.639727
vt 0.823902 0.393220
vt 0.824082 0.462951
vt 0.828124 0.571432
vt 0.990597 0.548249
vt 0.276785 0.093114
vt 0.991275 0.548249
vt 0.998786 0.551000
vt 0.362453 0.363740
vt 0.922317 0.558677
vt 0.928333 0.558699
vt 0.935765 0.561439
vt 0.039026 0.532450
vt 0.895577 0.244460
vt 0.893301 0.244446
vt 0.881240 0.238788
vt 0.723505 0.607992
vt 0.947753 0.553927
vt 0.951039 0.553932
vt 0.958508 0.556677
vt 0.627531 0.304875
vt 0.969177 0.553262
vt 0.972125 0.553266
vt 0.730677 0.078982
vt 0.725370 0.343412
vt 0.037192 0.205111
vt 0.029986 0.075747
vt 0.875997 0.233436
vt 0.868443 0.801963
vt 0.871742 0.463026
vt 0.875839 0.394749
vt 0.875797 0.571498
vt 0.876039 0.641186
vt 0.732377 0.268319
vt 0.732389 0.155050
vt 0.855414 0.394032
vt 0.853845 0.460160
vt 0.843097 0.460464
vt 0.843629 0.393656
vt 0.856775 0.574026
vt 0.846026 0.574333
vt 0.856308 0.640795
vt 0.844520 0.640436
vt 0.859469 0.242362
vt 0.849106 0.241251
vt 0.851065 0.793211
vt 0.840699 0.792119
vt 0.712422 0.151682
vt 0.710889 0.270038
vt 0.706548 0.269993
vt 0.708082 0.151637
vt 0.708951 0.333654
vt 0.704799 0.333072
vt 0.714232 0.088607
vt 0.710081 0.088020
vt 0.378111 0.412156
vt 0.998686 0.489036
vt 0.998599 0.706521
vt 0.983076 0.550976
vt 0.983792 0.488945
vt 0.982899 0.706507
vt 0.983456 0.328156
vt 0.983328 0.390134
vt 0.984288 0.172759
vt 0.999168 0.328240
vt 0.329176 0.525764
vt 0.532455 0.529256
vt 0.982675 0.005291
vt 0.985192 0.111167
vt 0.594274 0.423215
vt 0.586640 0.517504
vt 0.091739 0.514591
vt 0.935644 0.497621
vt 0.935135 0.715510
vt 0.914864 0.561357
vt 0.278925 0.416437
vt 0.544120 0.363036
vt 0.374650 0.578627
vt 0.915078 0.394606
vt 0.915689 0.176756
vt 0.935904 0.330883
vt 0.205361 0.563364
vt 0.208656 0.360934
vt 0.914016 0.005473
vt 0.916552 0.113146
vt 0.102785 0.299703
vt 0.196694 0.307531
vt 0.729445 0.572949
vt 0.881539 0.301447
vt 0.882729 0.080460
vt 0.907738 0.239038
vt 0.094665 0.616275
vt 0.038620 0.347615
vt 0.262470 0.519440
vt 0.908071 0.398777
vt 0.906194 0.619623
vt 0.881676 0.461131
vt 0.823498 0.721413
vt 0.570569 0.761451
vt 0.909790 0.786281
vt 0.904094 0.681496
vt 0.476318 0.613060
vt 0.495221 0.743564
vt 0.668497 0.292988
vt 0.958403 0.493728
vt 0.958121 0.711412
vt 0.940270 0.556631
vt 0.781558 0.612478
vt 0.570085 0.607800
vt 0.729801 0.726560
vt 0.940523 0.392574
vt 0.941364 0.174944
vt 0.958803 0.329704
vt 0.781988 0.342542
vt 0.785788 0.137716
vt 0.939802 0.005383
vt 0.942268 0.112248
vt 0.679525 0.074764
vt 0.774469 0.082099
vt 0.961689 0.555970
vt 0.674519 0.387823
vt 0.626509 0.128728
vt 0.827367 0.294433
vt 0.961936 0.392290
vt 0.962787 0.174689
vt 0.979896 0.329535
vt 0.426092 0.363482
vt 0.377644 0.090506
vt 0.623875 0.274074
vt 0.979492 0.493181
vt 0.979247 0.710839
vt 0.961219 0.005372
vt 0.963690 0.112123
vt 0.421267 0.006665
vt 0.570101 0.000021
vt 0.824181 0.801062
vt 0.244600 0.809289
vt 0.831745 0.232467
vt 0.354519 0.809297
vt 0.244596 0.874636
vt 0.354515 0.874643
vt 0.102836 0.019302
vt 0.097887 0.250929
vt 0.296009 0.034785
vt 0.282282 0.272689
vt 0.370493 0.078003
vt 0.375541 0.225746
vt 0.244616 0.571412
vt 0.244611 0.636758
vt 0.068653 0.000000
vt 0.244610 0.660758
vt 0.354535 0.571419
vt 0.354530 0.636765
vt 0.354529 0.660765
vt 0.070794 0.272705
vt 0.000000 0.069239
vt 0.010015 0.217619
vt 0.971710 0.000021
vt 0.968733 0.000052
vt 0.961230 0.778953
vt 0.979103 0.778991
vt 0.990909 0.000022
vt 0.990224 0.000028
vt 0.982831 0.774983
vt 0.998529 0.774999
vt 0.927559 0.000022
vt 0.921487 0.000079
vt 0.914040 0.783227
vt 0.934869 0.783309
vt 0.895481 0.797226
vt 0.897793 0.797170
vt 0.909802 0.010975
vt 0.883375 0.010729
vt 0.950629 0.000022
vt 0.947311 0.000055
vt 0.939763 0.779477
vt 0.957960 0.779520
vn 0.000000 0.000000 1.000000
vn 0.000000 0.000000 1.000000
vn 0.000000 0.000000 1.000000
vn 0.000000 0.000000 1.000000
vn 0.000000 1.000000 0.000000
vn 0.000000 1.000000 0.000000
vn 0.000000 1.000000 0.000000
vn 0.000000 1.000000 0.000000
vn 0.000000 0.000000 -1.000000
vn 0.000000 0.000000 -1.000000
vn 0.000000 0.000000 -1.000000
vn 0.000000 0.000000 -1.000000
vn 0.000000 -1.000000 -0.000000
vn 0.000000 -1.000000 -0.000000
vn 0.000000 -1.000000 -0.000001
vn 0.000000 -1.000000 -0.000001
vn 1.000000 0.000000 0.000000
vn 1.000000 0.000000 0.000000
vn 1.000000 0.000000 0.000000
vn 1.000000 0.000000 0.000000
vn -1.000000 0.000000 0.000000
vn -1.000000 0.000000 0.000000
vn -1.000000 0.000000 0.000000
vn -1.000000 0.000000 0.000000
vn 0.000000 0.000000 1.000000
vn 0.000000 0.000000 1.000000
vn 0.000000 0.000000 1.000000
vn 0.000000 0.000000 1.000000
vn 1.000000 0.000000 0.000000
vn 1.000000 0.000000 0.000000
vn 1.000000 0.000000 0.000000
vn 1.000000 0.000000 0.000000
vn 0.000000 0.000000 -1.000000
vn 0.000000 0.000000 -1.000000
vn 0.000000 0.000000 -1.000000
vn 0.000000 0.000000 -1.000000
vn -1.000000 0.000000 0.000000
vn -1.000000 0.000000 0.000000
vn -1.000000 0.000000 0.000000
vn -1.000000 0.000000 0.000000
vn 0.000000 -0.707106 0.707108
vn 0.000000 -0.707106 0.707108
vn 0.000000 -0.707106 0.707108
vn 0.000000 -0.707106 0.707108
vn 0.000000 0.707107 0.707107
vn 0.000000 0.707107 0.707107
vn 0.000000 0.707107 0.707107
vn 0.000000 0.707107 0.707107
vn 0.707108 -0.707106 -0.000001
vn 0.707107 -0.707106 -0.000000
vn 0.707107 -0.707106 -0.000000
vn 0.707108 -0.707106 -0.000001
vn 0.707106 0.707108 0.000000
vn 0.707106 0.707108 0.000000
vn 0.707106 0.707108 0.000001
vn 0.707106 0.707108 0.000001
vn 0.000000 -0.707106 -0.707108
vn 0.000000 -0.707106 -0.707108
vn 0.000000 -0.707106 -0.707108
vn 0.000000 -0.707106 -0.707108
vn 0.000000 0.707107 -0.707107
vn 0.000000 0.707107 -0.707107
vn 0.000000 0.707107 -0.707107
vn 0.000000 0.707107 -0.707107
vn -0.707101 -0.707112 -0.000000
vn -0.707101 -0.707112 -0.000000
vn -0.707104 -0.707110 -0.000001
vn -0.707104 -0.707110 -0.000001
vn -0.707106 0.707107 0.000000
vn -0.707106 0.707107 0.000000
vn -0.707106 0.707107 0.000000
vn -0.707106 0.707107 0.000000
vn 0.000000 0.000000 1.000000
vn 0.000000 0.000000 1.000000
vn 0.000000 0.000000 1.000000
vn 0.000000 0.000000 1.000000
vn 1.000000 0.000000 0.000000
vn 1.000000 0.000000 0.000000
vn 1.000000 0.000000 0.000000
vn 1.000000 0.000000 0.000000
vn 0.000000 0.000000 -1.000000
vn 0.000000 0.000000 -1.000000
vn 0.000000 0.000000 -1.000000
vn 0.000000 0.000000 -1.000000
vn -1.000000 0.000000 0.000000
vn -1.000000 0.000000 0.000000
vn -1.000000 0.000000 0.000000
vn -1.000000 0.000000 0.000000
vn 0.000000 0.000000 1.000000
vn 0.000000 0.000000 1.000000
vn 0.000000 0.000000 1.000000
vn 0.000000 0.000000 1.000000
vn 1.000000 0.000000 0.000000
vn 1.000000 0.000000 0.000000
vn 1.000000 0.000000 0.000000
vn 1.000000 0.000000 0.000000
vn 0.000000 0.000000 -1.000000
vn 0.000000 0.000000 -1.000000
vn 0.000000 0.000000 -1.000000
vn 0.000000 0.000000 -1.000000
vn -1.000000 0.000000 0.000000
vn -1.000000 0.000000 0.000000
vn -1.000000 0.000000 0.000000
vn -1.000000 0.000000 0.000000
vn 0.000000 -0.707105 0.707108
vn 0.000000 -0.707105 0.707108
vn 0.000000 -0.707105 0.707108
vn 0.000000 -0.707105 0.707108
vn 0.000000 0.707105 0.707108
vn 0.000000 0.707105 0.707108
vn 0.000000 0.707105 0.707108
vn 0.000000 0.707105 0.707108
vn 0.707109 -0.707105 -0.000001
vn 0.707108 -0.707105 -0.000000
vn 0.707108 -0.707105 -0.000000
vn 0.707109 -0.707105 -0.000001
vn 0.707107 0.707106 0.000000
vn 0.707107 0.707106 0.000000
vn 0.707107 0.707106 0.000001
vn 0.707107 0.707106 0.000001
vn 0.000000 -0.707105 -0.707108
vn 0.000000 -0.707105 -0.707108
vn 0.000000 -0.707105 -0.707108
vn 0.000000 -0.707105 -0.707108
vn 0.000000 0.707105 -0.707108
vn 0.000000 0.707105 -0.707108
vn 0.000000 0.707105 -0.707108
vn 0.000000 0.707105 -0.707108
vn -0.707107 -0.707106 0.000000
vn -0.707107 -0.707106 0.000000
vn -0.707108 -0.707106 0.000000
vn -0.707108 -0.707106 0.000000
vn -0.707108 0.707106 0.000000
vn -0.707108 0.707106 0.000000
vn -0.707107 0.707106 0.000000
vn -0.707108 0.707106 0.000000
vn 0.000000 0.000000 1.000000
vn 0.000000 0.000000 1.000000
vn 0.000000 0.000000 1.000000
vn 0.000000 0.000000 1.000000
vn 1.000000 0.000000 0.000000
vn 1.000000 0.000000 0.000000
vn 1.000000 0.000000 0.000000
vn 1.000000 0.000000 0.000000
vn 0.000000 0.000000 -1.000000
vn 0.000000 0.000000 -1.000000
vn 0.000000 0.000000 -1.000000
vn 0.000000 0.000000 -1.000000
vn -1.000000 0.000000 0.000000
vn -1.000000 0.000000 0.000000
vn -1.000000 0.000000 0.000000
vn -1.000000 0.000000 0.000000
vn 0.000000 0.000000 1.000000
vn 0.000000 0.000000 1.000000
vn 0.000000 0.000000 1.000000
vn 0.000000 0.000000 1.000000
vn 1.000000 0.000000 0.000000
vn 1.000000 0.000000 0.000000
vn 1.000000 0.000000 0.000000
vn 1.000000 0.000000 0.000000
vn 0.000000 0.000000 -1.000000
vn 0.000000 0.000000 -1.000000
vn 0.000000 0.000000 -1.000000
vn 0.000000 0.000000 -1.000000
vn -1.000000 0.000000 0.000000
vn -1.000000 0.000000 0.000000
vn -1.000000 0.000000 0.000000
vn -1.000000 0.000000 0.000000
vn 0.000000 -0.894428 0.447213
vn 0.000000 -0.894428 0.447213
vn 0.000000 -0.894428 0.447213
vn 0.000000 -0.894428 0.447213
vn 0.000000 0.894427 0.447213
vn 0.000000 0.894427 0.447213
vn 0.000000 0.894427 0.447213
vn 0.000000 0.894427 0.447213
vn 0.447213 -0.894427 -0.000001
vn 0.447212 -0.894428 -0.000000
vn 0.447212 -0.894428 -0.000000
vn 0.447213 -0.894427 -0.000001
vn 0.447213 0.894428 0.000000
vn 0.447213 0.894428 0.000000
vn 0.447212 0.894428 0.000001
vn 0.447212 0.894428 0.000001
vn 0.000000 -0.894428 -0.447213
vn 0.000000 -0.894428 -0.447213
vn 0.000000 -0.894428 -0.447213
vn 0.000000 -0.894428 -0.447213
vn 0.000000 0.894427 -0.447213
vn 0.000000 0.894427 -0.447213
vn 0.000000 0.894427 -0.447213
vn 0.000000 0.894427 -0.447213
vn -0.447213 -0.894428 0.000000
vn -0.447213 -0.894428 0.000000
vn -0.447213 -0.894428 0.000000
vn -0.447213 -0.894428 0.000000
vn -0.447213 0.894428 0.000000
vn -0.447213 0.894427 0.000000
vn -0.447213 0.894427 0.000000
vn -0.447213 0.894427 0.000000
vn 0.000000 0.000000 1.000000
vn 0.000000 0.000000 1.000000
vn 0.000000 0.000000 1.000000
vn 0.000000 0.000000 1.000000
vn 1.000000 0.000000 0.000000
vn 1.000000 0.000000 0.000000
vn 1.000000 0.000000 0.000000
vn 1.000000 0.000000 0.000000
vn 0.000000 0.000000 -1.000000
vn 0.000000 0.000000 -1.000000
vn 0.000000 0.000000 -1.000000
vn 0.000000 0.000000 -1.000000
vn -1.000000 0.000000 0.000000
vn -1.000000 0.000000 0.000000
vn -1.000000 0.000000 0.000000
vn -1.000000 0.000000 0.000000
vn 0.000000 0.000000 1.000000
vn 0.000000 0.000000 1.000000
vn 0.000000 0.000000 1.000000
vn 0.000000 0.000000 1.000000
vn 1.000000 0.000000 0.000000
vn 1.000000 0.000000 0.000000
vn 1.000000 0.000000 0.000000
vn 1.000000 0.000000 0.000000
vn 0.000000 0.000000 -1.000000
vn 0.000000 0.000000 -1.000000
vn 0.000000 0.000000 -1.000000
vn 0.000000 0.000000 -1.000000
vn -1.000000 0.000000 0.000000
vn -1.000000 0.000000 0.000000
vn -1.000000 0.000000 0.000000
vn -1.000000 0.000000 0.000000
vn 0.000000 -0.707104 0.707110
vn 0.000000 -0.707104 0.707110
vn 0.000000 -0.707104 0.707110
vn 0.000000 -0.707104 0.707110
vn 0.000000 0.707107 0.707107
vn 0.000000 0.707107 0.707107
vn 0.000000 0.707107 0.707107
vn 0.000000 0.707107 0.707107
vn 0.707110 -0.707104 -0.000001
vn 0.707110 -0.707104 -0.000000
vn 0.707110 -0.707104 -0.000000
vn 0.707110 -0.707104 -0.000001
vn 0.707106 0.707107 0.000000
vn 0.707106 0.707107 0.000000
vn 0.707106 0.707107 0.000001
vn 0.707106 0.707108 0.000001
vn 0.000000 -0.707104 -0.707110
vn 0.000000 -0.707104 -0.707110
vn 0.000000 -0.707104 -0.707110
vn 0.000000 -0.707104 -0.707110
vn 0.000000 0.707107 -0.707107
vn 0.000000 0.707107 -0.707107
vn 0.000000 0.707107 -0.707107
vn 0.000000 0.707107 -0.707107
vn -0.707109 -0.707105 0.000000
vn -0.707108 -0.707105 0.000000
vn -0.707109 -0.707105 0.000000
vn -0.707109 -0.707105 0.000000
vn -0.707107 0.707107 0.000000
vn -0.707106 0.707107 0.000000
vn -0.707106 0.707107 0.000000
vn -0.707107 0.707107 0.000000
vn 0.000000 0.000000 1.000000
vn 0.000000 0.000000 1.000000
vn 0.000000 0.000000 1.000000
vn 0.000000 0.000000 1.000000
vn 1.000000 0.000000 0.000000
vn 1.000000 0.000000 0.000000
vn 1.000000 0.000000 0.000000
vn 1.000000 0.000000 0.000000
vn 0.000000 0.000000 -1.000000
vn 0.000000 0.000000 -1.000000
vn 0.000000 0.000000 -1.000000
vn 0.000000 0.000000 -1.000000
vn -1.000000 0.000000 0.000000
vn -1.000000 0.000000 0.000000
vn -1.000000 0.000000 0.000000
vn -1.000000 0.000000 0.000000
vn 0.000000 0.000000 1.000000
vn 0.000000 0.000000 1.000000
vn 0.000000 0.000000 1.000000
vn 0.000000 0.000000 1.000000
vn 1.000000 0.000000 0.000000
vn 1.000000 0.000000 0.000000
vn 1.000000 0.000000 0.000000
vn 1.000000 0.000000 0.000000
vn 0.000000 0.000000 -1.000000
vn 0.000000 0.000000 -1.000000
vn 0.000000 0.000000 -1.000000
vn 0.000000 0.000000 -1.000000
vn -1.000000 0.000000 0.000000
vn -1.000000 0.000000 0.000000
vn -1.000000 0.000000 0.000000
vn -1.000000 0.000000 0.000000
vn 0.000000 -0.707105 0.707109
vn 0.000000 -0.707105 0.707109
vn 0.000000 -0.707105 0.707109
vn 0.000000 -0.707105 0.707109
vn 0.000000 0.707105 0.707108
vn 0.000000 0.707105 0.707108
vn 0.000000 0.707105 0.707108
vn 0.000000 0.707105 0.707108
vn 0.707107 -0.707106 -0.000001
vn 0.707106 -0.707108 -0.000000
vn 0.707106 -0.707108 -0.000000
vn 0.707107 -0.707106 -0.000001
vn 0.707107 0.707106 0.000000
vn 0.707107 0.707106 0.000000
vn 0.707108 0.707106 0.000000
vn 0.707108 0.707106 0.000000
vn 0.000000 -0.707105 -0.707109
vn 0.000000 -0.707105 -0.707109
vn 0.000000 -0.707105 -0.707109
vn 0.000000 -0.707105 -0.707109
vn 0.000000 0.707105 -0.707108
vn 0.000000 0.707105 -0.707108
vn 0.000000 0.707105 -0.707108
vn 0.000000 0.707105 -0.707108
vn -0.707107 -0.707106 0.000000
vn -0.707107 -0.707106 0.000000
vn -0.707108 -0.707106 0.000000
vn -0.707108 -0.707106 0.000000
vn -0.707108 0.707106 0.000000
vn -0.707108 0.707106 0.000000
vn -0.707107 0.707106 0.000000
vn -0.707108 0.707106 0.000000
vn -1.000000 0.000000 0.000000
vn -1.000000 0.000000 0.000000
vn -1.000000 0.000000 0.000000
vn -1.000000 0.000000 0.000000
vn 0.000000 -1.000000 0.000001
vn 0.000000 -1.000000 0.000001
vn 0.000000 -1.000000 0.000000
vn 0.000000 -1.000000 0.000000
vn 1.000000 0.000000 0.000000
vn 1.000000 0.000000 0.000000
vn 1.000000 0.000000 0.000000
vn 1.000000 0.000000 0.000000
vn 0.707107 -0.707106 0.000000
vn 0.707107 -0.707106 0.000000
vn 0.707108 -0.707106 0.000001
vn 0.707108 -0.707106 0.000001
vn 1.000000 0.000000 0.000000
vn 1.000000 0.000000 0.000000
vn 1.000000 0.000000 0.000000
vn 1.000000 0.000000 0.000000
vn 0.707106 0.707108 -0.000001
vn 0.707106 0.707108 -0.000000
vn 0.707106 0.707108 -0.000000
vn 0.707106 0.707108 -0.000001
vn 1.000000 0.000000 0.000000
vn 1.000000 0.000000 0.000000
vn 1.000000 0.000000 0.000000
vn 1.000000 0.000000 0.000000
vn 0.707108 -0.707105 0.000000
vn 0.707108 -0.707105 0.000000
vn 0.707109 -0.707105 0.000001
vn 0.707109 -0.707105 0.000001
vn 1.000000 0.000000 0.000000
vn 1.000000 0.000000 0.000000
vn 1.000000 0.000000 0.000000
vn 1.000000 0.000000 0.000000
vn 0.707107 0.707106 -0.000001
vn 0.707107 0.707106 -0.000000
vn 0.707107 0.707106 -0.000000
vn 0.707107 0.707106 -0.000001
vn 1.000000 0.000000 0.000000
vn 1.000000 0.000000 0.000000
vn 1.000000 0.000000 0.000000
vn 1.000000 0.000000 0.000000
vn 0.447212 -0.894428 0.000000
vn 0.447212 -0.894428 0.000000
vn 0.447213 -0.894427 0.000001
vn 0.447213 -0.894427 0.000001
vn 1.000000 0.000000 0.000000
vn 1.000000 0.000000 0.000000
vn 1.000000 0.000000 0.000000
vn 1.000000 0.000000 0.000000
vn 0.447212 0.894428 -0.000001
vn 0.447213 0.894428 -0.000000
vn 0.447213 0.894428 -0.000000
vn 0.447212 0.894428 -0.000001
vn 1.000000 0.000000 0.000000
vn 1.000000 0.000000 0.000000
vn 1.000000 0.000000 0.000000
vn 1.000000 0.000000 0.000000
vn 0.707110 -0.707104 0.000000
vn 0.707110 -0.707104 0.000000
vn 0.707110 -0.707104 0.000001
vn 0.707110 -0.707104 0.000001
vn 1.000000 0.000000 0.000000
vn 1.000000 0.000000 0.000000
vn 1.000000 0.000000 0.000000
vn 1.000000 0.000000 0.000000
vn 0.707106 0.707107 -0.000001
vn 0.707106 0.707107 -0.000000
vn 0.707106 0.707107 -0.000000
vn 0.707106 0.707107 -0.000001
vn 1.000000 0.000000 0.000000
vn 1.000000 0.000000 0.000000
vn 1.000000 0.000000 0.000000
vn 1.000000 0.000000 0.000000
vn 0.707106 -0.707108 0.000000
vn 0.707106 -0.707108 0.000000
vn 0.707107 -0.707106 0.000001
vn 0.707107 -0.707106 0.000001
vn 1.000000 0.000000 0.000000
vn 1.000000 0.000000 0.000000
vn 1.000000 0.000000 0.000000
vn 1.000000 0.000000 0.000000
vn 0.707108 0.707106 0.000000
vn 0.707108 0.707106 0.000000
vn 0.707107 0.707106 0.000000
vn 0.707108 0.707106 0.000000
vn 0.000000 1.000000 0.000000
vn 0.000000 1.000000 0.000000
vn 0.000000 1.000000 0.000000
vn 0.000000 1.000000 0.000000
vn -0.707107 0.707106 0.000000
vn -0.707107 0.707106 0.000000
vn -0.707108 0.707106 0.000000
vn -0.707108 0.707106 0.000000
vn -1.000000 0.000000 0.000000
vn -1.000000 0.000000 0.000000
vn -1.000000 0.000000 0.000000
vn -1.000000 0.000000 0.000000
vn -0.707108 -0.707106 0.000000
vn -0.707108 -0.707106 0.000000
vn -0.707107 -0.707106 0.000000
vn -0.707108 -0.707106 0.000000
vn -1.000000 0.000000 0.000000
vn -1.000000 0.000000 0.000000
vn -1.000000 0.000000 0.000000
vn -1.000000 0.000000 0.000000
vn -0.707106 0.707107 0.000000
vn -0.707106 0.707107 0.000000
vn -0.707107 0.707107 0.000000
vn -0.707107 0.707107 0.000000
vn -1.000000 0.000000 0.000000
vn -1.000000 0.000000 0.000000
vn -1.000000 0.000000 0.000000
vn -1.000000 0.000000 0.000000
vn -0.707109 -0.707105 0.000000
vn -0.707109 -0.707105 0.000000
vn -0.707109 -0.707105 0.000000
vn -0.707109 -0.707105 0.000000
vn -1.000000 0.000000 0.000000
vn -1.000000 0.000000 0.000000
vn -1.000000 0.000000 0.000000
vn -1.000000 0.000000 0.000000
vn -0.447213 0.894428 0.000000
vn -0.447213 0.894428 0.000000
vn -0.447213 0.894428 0.000000
vn -0.447213 0.894428 0.000000
vn -1.000000 0.000000 0.000000
vn -1.000000 0.000000 0.000000
vn -1.000000 0.000000 0.000000
vn -1.000000 0.000000 0.000000
vn -0.447213 -0.894428 0.000000
vn -0.447213 -0.894427 0.000000
vn -0.447213 -0.894427 0.000000
vn -0.447213 -0.894427 0.000000
vn -1.000000 0.000000 0.000000
vn -1.000000 0.000000 0.000000
vn -1.000000 0.000000 0.000000
vn -1.000000 0.000000 0.000000
vn -0.707107 0.707106 0.000000
vn -0.707107 0.707106 0.000000
vn -0.707108 0.707106 0.000000
vn -0.707108 0.707106 0.000000
vn -1.000000 0.000000 0.000000
vn -1.000000 0.000000 0.000000
vn -1.000000 0.000000 0.000000
vn -1.000000 0.000000 0.000000
vn -0.707108 -0.707106 0.000000
vn -0.707108 -0.707106 0.000000
vn -0.707107 -0.707106 0.000000
vn -0.707108 -0.707106 0.000000
vn -1.000000 0.000000 0.000000
vn -1.000000 0.000000 0.000000
vn -1.000000 0.000000 0.000000
vn -1.000000 0.000000 0.000000
vn -0.707106 0.707107 0.000000
vn -0.707106 0.707108 0.000000
vn -0.707106 0.707107 0.000000
vn -0.707106 0.707107 0.000000
vn -1.000000 0.000000 0.000000
vn -1.000000 0.000000 0.000000
vn -1.000000 0.000000 0.000000
vn -1.000000 0.000000 0.000000
vn 0.000000 1.000000 0.000000
vn 0.000000 1.000000 0.000000
vn -0.707101 -0.707112 0.000000
vn -0.707101 -0.707112 0.000000
vn -0.707104 -0.707109 0.000001
vn -0.707104 -0.707109 0.000001
vn 0.000000 0.000000 1.000000
vn 0.000000 0.000000 1.000000
vn 0.000000 0.000000 1.000000
vn 0.000000 0.000000 1.000000
vn 1.000000 0.000000 0.000000
vn 1.000000 0.000000 0.000000
vn 1.000000 0.000000 0.000000
vn 1.000000 0.000000 0.000000
vn -1.000000 0.000000 0.000000
vn -1.000000 0.000000 0.000000
vn -1.000000 0.000000 0.000000
vn -1.000000 0.000000 0.000000
vn 1.000000 0.000000 0.000000
vn 1.000000 0.000000 0.000000
vn 1.000000 0.000000 0.000000
vn 1.000000 0.000000 0.000000
vn 0.000000 0.000000 -1.000000
vn 0.000000 0.000000 -1.000000
vn 0.000000 0.000000 -1.000000
vn 0.000000 0.000000 -1.000000
vn -1.000000 0.000000 0.000000
vn -1.000000 0.000000 0.000000
vn -1.000000 0.000000 0.000000
vn -1.000000 0.000000 0.000000
vn 1.000000 0.000000 0.000000
vn 1.000000 0.000000 0.000000
vn 1.000000 0.000000 0.000000
vn 1.000000 0.000000 0.000000
vn -1.000000 0.000000 0.000000
vn -1.000000 0.000000 0.000000
vn -1.000000 0.000000 0.000000
vn -1.000000 0.000000 0.000000
vn 0.000000 0.000000 1.000000
vn 0.000000 0.000000 1.000000
vn 0.000000 0.000000 1.000000
vn 0.000000 0.000000 1.000000
vn 1.000000 0.000000 0.000000
vn 1.000000 0.000000 0.000000
vn 1.000000 0.000000 0.000000
vn 1.000000 0.000000 0.000000
vn -1.000000 0.000000 0.000000
vn -1.000000 0.000000 0.000000
vn -1.000000 0.000000 0.000000
vn -1.000000 0.000000 0.000000
vn 1.000000 0.000000 0.000000
vn 1.000000 0.000000 0.000000
vn 1.000000 0.000000 0.000000
vn 1.000000 0.000000 0.000000
vn 0.000000 0.000000 -1.000000
vn 0.000000 0.000000 -1.000000
vn 0.000000 0.000000 -1.000000
vn 0.000000 0.000000 -1.000000
vn -1.000000 0.000000 0.000000
vn -1.000000 0.000000 0.000000
vn -1.000000 0.000000 0.000000
vn -1.000000 0.000000 0.000000
vn 1.000000 0.000000 0.000000
vn 1.000000 0.000000 0.000000
vn 1.000000 0.000000 0.000000
vn 1.000000 0.000000 0.000000
vn -1.000000 0.000000 0.000000
vn -1.000000 0.000000 0.000000
vn -1.000000 0.000000 0.000000
vn -1.000000 0.000000 0.000000
vn 0.000000 0.000000 1.000000
vn 0.000000 0.000000 1.000000
vn 0.000000 0.000000 1.000000
vn 0.000000 0.000000 1.000000
vn 1.000000 0.000000 0.000000
vn 1.000000 0.000000 0.000000
vn 1.000000 0.000000 0.000000
vn 1.000000 0.000000 0.000000
vn 0.000000 0.000000 -1.000000
vn 0.000000 0.000000 -1.000000
vn 0.000000 0.000000 -1.000000
vn 0.000000 0.000000 -1.000000
vn -1.000000 0.000000 0.000000
vn -1.000000 0.000000 0.000000
vn -1.000000 0.000000 0.000000
vn -1.000000 0.000000 0.000000
vn 0.554700 -0.832050 0.000000
vn 0.554700 -0.832050 0.000000
vn 0.554700 -0.832050 0.000000
vn 0.554700 -0.832050 0.000000
vn 0.554699 0.832051 0.000000
vn 0.554699 0.832051 0.000000
vn 0.554699 0.832051 0.000000
vn 0.554699 0.832051 0.000000
vn 0.000000 -0.832050 -0.554701
vn 0.000000 -0.832050 -0.554701
vn 0.000000 -0.832050 -0.554701
vn 0.000000 -0.832050 -0.554701
vn 0.000000 0.832051 -0.554699
vn 0.000000 0.832051 -0.554699
vn 0.000000 0.832051 -0.554699
vn 0.000000 0.832051 -0.554699
vn -0.554700 -0.832050 0.000000
vn -0.554700 -0.832050 0.000000
vn -0.554700 -0.832050 0.000000
vn -0.554700 -0.832050 0.000000
vn -0.554699 0.832051 0.000000
vn -0.554699 0.832051 0.000000
vn -0.554699 0.832051 0.000000
vn -0.554699 0.832051 0.000000
vn 0.554700 -0.832050 0.000000
vn 0.554700 -0.832050 0.000000
vn 0.554699 0.832051 0.000000
vn 0.554699 0.832051 0.000000
vn -0.000000 0.000000 1.000000
vn -0.000000 0.000000 1.000000
vn -0.000000 0.000000 1.000000
vn -0.000000 0.000000 1.000000
vn -0.554700 -0.832050 0.000000
vn -0.554700 -0.832050 0.000000
vn -0.000000 0.000000 1.000000
vn -0.000000 0.000000 1.000000
vn -0.000000 0.000000 1.000000
vn -0.000000 0.000000 1.000000
vn -0.554699 0.832051 0.000000
vn -0.554699 0.832051 0.000000
vn 0.000000 -0.832050 0.554700
vn 0.000000 -0.832050 0.554700
vn 0.000000 -0.832050 0.554700
vn 0.000000 -0.832050 0.554700
vn 0.000000 0.832050 0.554701
vn 0.000000 0.832050 0.554701
vn 0.000000 0.832050 0.554701
vn 0.000000 0.832050 0.554701
vn 0.554700 -0.832050 0.000000
vn 0.554700 -0.832050 0.000000
vn 0.554700 -0.832050 0.000000
vn 0.554700 -0.832050 0.000000
vn -0.000000 0.000000 -1.000000
vn -0.000000 0.000000 -1.000000
vn -0.000000 0.000000 -1.000000
vn -0.000000 0.000000 -1.000000
vn 0.554701 0.832049 0.000000
vn 0.554701 0.832049 0.000000
vn 0.554701 0.832049 0.000000
vn 0.554701 0.832049 0.000000
vn -0.554700 -0.832050 0.000000
vn -0.554700 -0.832050 0.000000
vn -0.554700 -0.832050 0.000000
vn -0.554700 -0.832050 0.000000
vn -0.554701 0.832049 0.000000
vn -0.554701 0.832049 0.000000
vn -0.554701 0.832049 0.000000
vn -0.554701 0.832049 0.000000
vn 0.000000 0.000000 -1.000000
vn 0.000000 0.000000 -1.000000
vn 0.000000 0.000000 -1.000000
vn 0.000000 0.000000 -1.000000
s off
g Main_building2
usemtl initialShadingGroup
f 1/1/1 2/2/2 4/287/3 3/288/4
f 185/301/5 186/305/6 187/306/7 188/302/8
f 5/9/9 6/280/10 8/11/11 7/12/12
s 1
f 88/13/13 90/14/14 2/2/15 1/1/16
s 2
f 2/2/17 90/14/18 91/281/19 4/287/20
s 3
f 88/13/21 1/1/22 3/288/23 85/16/24
s off
f 13/311/25 14/18/26 15/19/27 16/312/28
s 4
f 14/18/29 93/21/30 95/22/31 15/19/32
s off
f 17/23/33 19/24/34 20/25/35 18/26/36
s 5
f 165/27/37 167/28/38 13/17/39 16/20/40
s off
f 3/4/41 4/3/42 14/18/43 13/311/44
f 10/286/45 9/285/46 16/312/47 15/19/48
s 6
f 4/3/49 91/15/50 93/21/51 14/18/52
s 7
f 95/22/53 97/278/54 10/286/55 15/19/56
s off
f 6/10/57 5/283/58 19/24/59 17/23/60
f 12/32/61 11/277/62 18/26/63 20/25/64
s 8
f 167/28/65 85/284/66 3/314/67 13/17/68
s 9
f 9/313/69 163/34/70 165/27/71 16/20/72
s off
f 9/30/73 10/29/74 22/272/75 21/271/76
s 10
f 10/29/77 97/31/78 99/268/79 22/272/80
s off
f 11/33/81 12/274/82 24/38/83 23/267/84
s 11
f 161/40/85 163/275/86 9/30/87 21/271/88
s off
f 29/327/89 30/42/90 31/43/91 32/328/92
s 12
f 30/42/93 101/45/94 103/46/95 31/43/96
s off
f 33/47/97 35/48/98 36/49/99 34/50/100
s 13
f 157/51/101 159/52/102 29/41/103 32/44/104
s off
f 21/36/105 22/35/106 30/42/107 29/327/108
f 26/270/109 25/269/110 32/328/111 31/43/112
s 14
f 22/35/113 99/37/114 101/45/115 30/42/116
s 15
f 103/46/117 105/265/118 26/270/119 31/43/120
s off
f 23/39/121 24/258/122 35/48/123 33/47/124
f 28/56/125 27/264/126 34/50/127 36/49/128
s 16
f 159/52/129 161/259/130 21/330/131 29/41/132
s 17
f 25/329/133 155/58/134 157/51/135 32/44/136
s off
f 25/54/137 26/53/138 38/256/139 37/255/140
s 18
f 26/53/141 105/55/142 107/252/143 38/256/144
s off
f 27/57/145 28/261/146 40/62/147 39/251/148
s 19
f 153/64/149 155/262/150 25/54/151 37/255/152
s off
f 45/323/153 46/66/154 47/67/155 48/324/156
s 20
f 46/66/157 109/69/158 111/70/159 47/67/160
s off
f 49/71/161 51/72/162 52/73/163 50/74/164
s 21
f 149/75/165 151/76/166 45/65/167 48/68/168
s off
f 37/60/169 38/59/170 46/66/171 45/323/172
f 42/254/173 41/253/174 48/324/175 47/67/176
s 22
f 38/59/177 107/61/178 109/69/179 46/66/180
s 23
f 111/70/181 113/249/182 42/254/183 47/67/184
s off
f 39/63/185 40/242/186 51/72/187 49/71/188
f 44/80/189 43/248/190 50/74/191 52/73/192
s 24
f 151/76/193 153/243/194 37/326/195 45/65/196
s 25
f 41/325/197 147/82/198 149/75/199 48/68/200
s off
f 41/78/201 42/77/202 54/240/203 53/239/204
s 26
f 42/77/205 113/79/206 115/236/207 54/240/208
s off
f 43/81/209 44/245/210 56/86/211 55/235/212
s 27
f 145/88/213 147/246/214 41/78/215 53/239/216
s off
f 61/319/217 62/90/218 63/91/219 64/320/220
s 28
f 62/90/221 117/93/222 119/94/223 63/91/224
s off
f 65/95/225 67/96/226 68/97/227 66/98/228
s 29
f 141/99/229 143/100/230 61/89/231 64/92/232
s off
f 53/84/233 54/83/234 62/90/235 61/319/236
f 58/238/237 57/237/238 64/320/239 63/91/240
s 30
f 54/83/241 115/85/242 117/93/243 62/90/244
s 31
f 119/94/245 121/233/246 58/238/247 63/91/248
s off
f 55/87/249 56/226/250 67/96/251 65/95/252
f 60/104/253 59/232/254 66/98/255 68/97/256
s 32
f 143/100/257 145/227/258 53/322/259 61/89/260
s 33
f 57/321/261 139/106/262 141/99/263 64/92/264
s off
f 57/102/265 58/101/266 70/224/267 69/223/268
s 34
f 58/101/269 121/103/270 123/220/271 70/224/272
s off
f 59/105/273 60/229/274 72/110/275 71/219/276
s 35
f 137/112/277 139/230/278 57/102/279 69/223/280
s off
f 77/315/281 78/114/282 79/115/283 80/316/284
s 36
f 78/114/285 125/117/286 127/118/287 79/115/288
s off
f 81/119/289 83/120/290 84/121/291 82/122/292
s 37
f 133/123/293 135/124/294 77/113/295 80/116/296
s off
f 69/108/297 70/107/298 78/114/299 77/315/300
f 74/222/301 73/221/302 80/316/303 79/115/304
s 38
f 70/107/305 123/109/306 125/117/307 78/114/308
s 39
f 127/118/309 129/217/310 74/222/311 79/115/312
s off
f 71/111/313 72/210/314 83/120/315 81/119/316
f 76/213/317 75/216/318 82/122/319 84/121/320
s 40
f 135/124/321 137/211/322 69/318/323 77/113/324
s 41
f 73/317/325 131/214/326 133/123/327 80/116/328
s 3
f 7/12/329 87/131/330 86/282/331 5/9/332
s 1
f 7/12/333 8/11/334 89/133/335 87/131/336
s 2
f 92/134/337 89/133/338 8/11/339 6/280/340
s 6
f 94/135/341 92/279/342 6/10/343 17/23/344
s 4
f 96/136/345 94/135/346 17/23/347 18/26/348
s 7
f 11/277/349 98/137/350 96/136/351 18/26/352
s 10
f 100/138/353 98/276/354 11/33/355 23/267/356
s 14
f 102/139/357 100/266/358 23/39/359 33/47/360
s 12
f 104/140/361 102/139/362 33/47/363 34/50/364
s 15
f 27/264/365 106/141/366 104/140/367 34/50/368
s 18
f 108/142/369 106/263/370 27/57/371 39/251/372
s 22
f 110/143/373 108/250/374 39/63/375 49/71/376
s 20
f 112/144/377 110/143/378 49/71/379 50/74/380
s 23
f 43/248/381 114/145/382 112/144/383 50/74/384
s 26
f 116/146/385 114/247/386 43/81/387 55/235/388
s 30
f 118/147/389 116/234/390 55/87/391 65/95/392
s 28
f 120/148/393 118/147/394 65/95/395 66/98/396
s 31
f 59/232/397 122/149/398 120/148/399 66/98/400
s 34
f 124/150/401 122/231/402 59/105/403 71/219/404
s 38
f 126/151/405 124/218/406 71/111/407 81/119/408
s 36
f 128/152/409 126/151/410 81/119/411 82/122/412
s 39
f 75/216/413 130/215/414 128/152/415 82/122/416
s 42
f 181/290/417 182/292/418 183/294/419 184/293/420
s 41
f 134/158/421 132/212/422 76/213/423 84/121/424
s 37
f 83/120/425 136/160/426 134/158/427 84/121/428
s 40
f 72/210/429 138/161/430 136/160/431 83/120/432
s 35
f 60/229/433 140/162/434 138/209/435 72/110/436
s 33
f 142/163/437 140/228/438 60/104/439 68/97/440
s 29
f 67/96/441 144/164/442 142/163/443 68/97/444
s 32
f 56/226/445 146/165/446 144/164/447 67/96/448
s 27
f 44/245/449 148/166/450 146/225/451 56/86/452
s 25
f 150/167/453 148/244/454 44/80/455 52/73/456
s 21
f 51/72/457 152/168/458 150/167/459 52/73/460
s 24
f 40/242/461 154/169/462 152/168/463 51/72/464
s 19
f 28/261/465 156/170/466 154/241/467 40/62/468
s 17
f 158/171/469 156/260/470 28/56/471 36/49/472
s 13
f 35/48/473 160/172/474 158/171/475 36/49/476
s 16
f 24/258/477 162/173/478 160/172/479 35/48/480
s 11
f 12/274/481 164/174/482 162/257/483 24/38/484
s 9
f 166/175/485 164/273/486 12/32/487 20/25/488
s 5
f 19/24/489 168/176/490 166/175/491 20/25/492
f 166/175/491 168/176/490 167/28/38 165/27/37
s 9
f 165/27/71 163/34/70 164/273/486 166/175/485
s 11
f 162/257/483 164/174/482 163/275/86 161/40/85
s 16
f 160/172/479 162/173/478 161/259/130 159/52/129
s 13
f 158/171/475 160/172/474 159/52/102 157/51/101
s 17
f 157/51/135 155/58/134 156/260/470 158/171/469
s 19
f 154/241/467 156/170/466 155/262/150 153/64/149
s 24
f 152/168/463 154/169/462 153/243/194 151/76/193
s 21
f 150/167/459 152/168/458 151/76/166 149/75/165
s 25
f 149/75/199 147/82/198 148/244/454 150/167/453
s 27
f 146/225/451 148/166/450 147/246/214 145/88/213
s 32
f 144/164/447 146/165/446 145/227/258 143/100/257
s 29
f 142/163/443 144/164/442 143/100/230 141/99/229
s 33
f 141/99/263 139/106/262 140/228/438 142/163/437
s 35
f 138/209/435 140/162/434 139/230/278 137/112/277
s 40
f 136/160/431 138/161/430 137/211/322 135/124/321
s 37
f 134/158/427 136/160/426 135/124/294 133/123/293
s 41
f 133/123/327 131/214/326 132/212/422 134/158/421
s 42
f 180/304/493 179/307/494 182/292/418 181/290/417
s 39
f 128/152/415 130/215/414 129/217/310 127/118/309
s 36
f 127/118/287 125/117/286 126/151/410 128/152/409
s 38
f 125/117/307 123/109/306 124/218/406 126/151/405
s 34
f 123/220/271 121/103/270 122/231/402 124/150/401
s 31
f 120/148/399 122/149/398 121/233/246 119/94/245
s 28
f 119/94/223 117/93/222 118/147/394 120/148/393
s 30
f 117/93/243 115/85/242 116/234/390 118/147/389
s 26
f 115/236/207 113/79/206 114/247/386 116/146/385
s 23
f 112/144/383 114/145/382 113/249/182 111/70/181
s 20
f 111/70/159 109/69/158 110/143/378 112/144/377
s 22
f 109/69/179 107/61/178 108/250/374 110/143/373
s 18
f 107/252/143 105/55/142 106/263/370 108/142/369
s 15
f 104/140/367 106/141/366 105/265/118 103/46/117
s 12
f 103/46/95 101/45/94 102/139/362 104/140/361
s 14
f 101/45/115 99/37/114 100/266/358 102/139/357
s 10
f 99/268/79 97/31/78 98/276/354 100/138/353
s 7
f 96/136/351 98/137/350 97/278/54 95/22/53
s 4
f 95/22/31 93/21/30 94/135/346 96/136/345
s 6
f 93/21/51 91/15/50 92/279/342 94/135/341
s 2
f 91/281/19 90/14/18 89/133/338 92/134/337
s 1
f 87/131/336 89/133/335 90/14/14 88/13/13
s 8
f 168/176/495 86/132/496 85/284/66 167/28/65
s 3
f 88/13/21 85/16/24 86/282/331 87/131/330
s 8
f 5/283/497 86/132/496 168/176/495 19/24/498
s off
f 73/126/499 74/125/500 170/179/501 169/180/502
f 74/125/503 129/127/504 171/296/505 170/179/506
f 131/130/507 73/126/508 169/180/509 172/295/510
f 130/153/511 75/129/512 175/300/513 174/298/514
f 75/129/515 76/128/516 176/299/517 175/300/518
f 76/128/519 132/159/520 173/297/521 176/299/522
f 129/127/523 130/153/524 174/298/525 171/296/526
f 132/159/527 131/130/528 172/295/529 173/297/530
f 169/180/531 170/179/532 178/310/533 177/309/534
f 170/179/535 171/296/536 179/308/537 178/310/538
f 172/295/539 169/180/540 177/309/541 180/303/542
f 189/189/543 190/190/544 191/191/545 192/192/546
f 190/190/547 193/193/548 194/194/549 191/191/550
f 193/193/551 195/195/552 196/196/553 194/194/554
f 197/197/555 189/189/556 192/192/557 198/198/558
f 195/195/559 199/199/560 200/200/561 196/196/562
f 201/201/563 202/202/564 203/203/565 204/204/566
f 202/202/567 205/205/568 206/206/569 203/203/570
f 179/307/571 180/304/572 188/302/573 187/306/574
f 207/207/575 201/201/576 204/204/577 208/208/578
s 43
f 174/184/579 175/183/580 190/190/581 189/189/582
s 44
f 183/156/583 182/155/584 192/192/585 191/191/586
s off
f 175/183/587 176/185/588 193/193/589 190/190/590
f 184/157/591 183/156/592 191/191/593 194/194/594
s 45
f 176/185/595 173/186/596 195/195/597 193/193/598
s 46
f 181/154/599 184/157/600 194/194/601 196/196/602
s 43
f 171/181/603 174/184/579 189/189/582 197/197/604
s 44
f 182/155/584 179/291/605 198/198/606 192/192/585
s off
f 179/291/607 171/181/608 197/197/609 198/198/610
s 45
f 173/186/596 172/182/611 199/199/612 195/195/597
s off
f 172/182/613 180/289/614 200/200/615 199/199/616
s 46
f 180/289/617 181/154/599 196/196/602 200/200/618
s off
f 177/188/619 178/187/620 202/202/621 201/201/622
f 186/6/623 185/5/624 204/204/625 203/203/626
f 178/187/627 179/178/628 205/205/629 202/202/630
f 179/178/631 187/7/632 206/206/633 205/205/634
f 187/7/635 186/6/636 203/203/637 206/206/638
f 180/177/639 177/188/640 201/201/641 207/207/642
f 185/5/643 188/8/644 208/208/645 204/204/646
f 188/8/647 180/177/648 207/207/649 208/208/650
