# Blender 5.1.0
# www.blender.org
mtllib PlayerHands.mtl
o Arm.001
v 5.094589 6.902050 1.759962
v 5.278347 6.974065 1.727314
v 5.086280 7.035638 2.233594
v 5.314244 7.129726 2.195575
v 5.331397 6.384614 2.116292
v 5.551427 6.475756 2.077626
v 5.220555 6.558257 1.678050
v 5.424821 6.687348 1.648376
v 5.273400 6.875259 2.912794
v 5.421954 6.910893 2.918019
v 5.623365 6.318880 2.699534
v 5.490867 6.246360 2.669200
v 5.222466 6.699821 2.061834
v 5.127941 6.731470 1.746717
v 5.346454 6.825763 1.640071
v 5.461637 6.798844 2.020122
v 5.419331 6.700372 2.971295
v 5.360803 6.661402 2.896590
v 4.755587 6.847655 2.891832
v 4.747180 6.848856 2.986292
v 4.736573 6.662182 3.039083
v 4.741482 6.649249 2.937597
v 4.845056 6.570045 3.054423
v 4.814223 6.568335 2.964633
v 4.956811 6.237398 3.075433
v 4.932421 6.206707 2.991818
v 5.234821 6.908392 2.778629
v 5.378219 6.672904 2.769094
v 5.452694 6.276507 2.539782
v 5.632876 6.352050 2.507984
v 5.546951 6.743046 2.752136
v 5.417268 6.983953 2.746659
v 5.220494 6.621961 3.032764
v 5.169524 6.605661 2.907926
v 5.380118 6.194901 2.795931
v 5.461384 6.245269 2.908848
v 5.103949 6.865479 2.908550
v 5.155678 6.652984 2.957991
v 5.175710 6.685874 3.103348
v 5.192163 6.890545 3.023674
v 4.903964 6.836402 2.902219
v 4.918593 6.630928 2.959006
v 4.929932 6.663456 3.112770
v 4.929852 6.856634 3.056824
v 5.014665 6.594861 3.059352
v 4.982697 6.587105 2.906188
v 5.146564 6.155187 2.903255
v 5.199443 6.198869 3.038650
v 5.057266 6.997415 2.455256
v 5.172694 7.227566 2.500553
v 5.061321 6.986439 2.704653
v 5.141852 7.211139 2.713260
v 5.156229 6.902869 2.680630
v 5.341441 6.987739 2.676583
v 5.134102 7.026673 2.205487
v 5.335062 7.097388 2.191628
v 4.764048 7.136771 2.778922
v 4.838099 7.307478 2.772534
v 4.890773 7.290489 2.873043
v 4.819466 7.128216 2.894607
v 2.185116 7.220396 -5.120197
v 2.192318 8.251097 -4.669916
v 1.448864 7.596073 -4.877838
v 1.396626 6.720469 -4.497455
v 1.416191 7.775852 -4.046582
v 5.653986 6.654272 1.587849
v 5.116197 6.316187 1.828447
v 4.956462 6.929981 1.845469
v 5.429262 7.182790 1.748632
v 4.822235 6.545410 -2.094941
v 4.423268 7.283717 -1.810935
v 4.044960 6.876482 -1.210873
v 3.945364 6.284716 -1.617309
v 5.356295 6.408498 -1.462723
v 4.928308 7.247752 -1.132384
v 4.257411 6.820692 -0.697065
v 4.475530 6.051956 -0.931806
v 2.907856 6.856840 -4.376413
v 3.167825 7.734692 -3.665639
v 2.180912 7.378208 -3.371757
v 2.018356 6.361838 -3.581917
vn -0.3992 0.8797 -0.2584
vn -0.9964 0.0458 -0.0710
vn 0.3501 -0.8168 -0.4586
vn -0.3477 0.0858 -0.9337
vn -0.3437 0.0772 -0.9359
vn -0.3828 0.1647 -0.9090
vn 0.8366 0.4995 -0.2248
vn 0.8861 0.4144 -0.2078
vn 0.8860 0.4146 -0.2079
vn -0.9169 -0.3715 0.1462
vn -0.9168 -0.3716 0.1462
vn -0.9204 -0.3620 0.1474
vn -0.3209 0.8991 0.2976
vn -0.3175 0.8963 0.3096
vn -0.3163 0.8958 0.3122
vn 0.8911 0.4497 -0.0602
vn 0.9320 0.3536 -0.0799
vn 0.9517 0.2757 0.1349
vn 0.9194 0.3869 0.0707
vn 0.3163 -0.8938 -0.3178
vn 0.3431 -0.8918 -0.2949
vn 0.3389 -0.8919 -0.2994
vn -0.8863 -0.4533 0.0942
vn -0.9290 -0.3599 0.0862
vn -0.9083 -0.3798 0.1755
vn -0.8677 -0.4731 0.1526
vn -0.9131 -0.3810 0.1451
vn -0.3128 0.0124 -0.9498
vn 0.9314 0.3128 -0.1861
vn 0.9719 0.2287 0.0552
vn 0.9602 0.2617 -0.0973
vn -0.9002 -0.2747 0.3380
vn -0.9371 -0.2895 0.1950
vn -0.9516 -0.2794 0.1276
vn -0.1309 0.9646 -0.2289
vn -0.1363 0.9734 -0.1843
vn -0.1397 0.9801 -0.1410
vn 0.4180 0.2596 0.8706
vn 0.2060 0.2995 0.9316
vn 0.2672 0.2895 0.9191
vn 0.1586 -0.9539 0.2549
vn 0.1282 -0.9651 0.2285
vn 0.1255 -0.9660 0.2261
vn -0.1438 -0.1235 -0.9819
vn -0.0437 -0.1875 -0.9813
vn -0.0600 -0.1773 -0.9823
vn -0.3368 0.9386 -0.0752
vn -0.2436 0.9677 -0.0648
vn -0.2032 0.9773 -0.0603
vn 0.6132 -0.0515 0.7882
vn 0.5102 -0.0338 0.8594
vn 0.4401 -0.0222 0.8977
vn 0.4703 -0.8809 0.0538
vn 0.3660 -0.9203 0.1381
vn 0.3714 -0.9188 0.1340
vn -0.4588 0.1692 -0.8723
vn -0.3378 0.0843 -0.9374
vn -0.3765 0.1110 -0.9198
vn -0.9368 -0.3492 0.0217
vn -0.8896 -0.4566 -0.0059
vn -0.9642 -0.2629 0.0353
vn 0.4175 -0.8837 -0.2116
vn 0.9201 0.1827 0.3464
vn 0.9336 0.1266 0.3351
vn 0.8825 0.2960 0.3655
vn -0.2728 0.8961 0.3501
vn -0.1133 0.9930 -0.0345
vn -0.1133 0.9931 -0.0302
vn -0.2968 -0.0725 -0.9522
vn -0.2761 -0.0337 -0.9605
vn 0.1099 -0.9558 0.2728
vn 0.1123 -0.9559 0.2714
vn 0.2364 0.0076 0.9716
vn 0.1767 0.0159 0.9841
vn 0.0819 -0.2461 -0.9658
vn 0.0800 -0.2452 -0.9662
vn 0.0014 -0.9817 0.1906
vn 0.0246 -0.9808 0.1936
vn -0.1573 0.3055 0.9391
vn -0.1513 0.3064 0.9398
vn -0.0804 0.9912 -0.1051
vn -0.0491 0.9936 -0.1019
vn 0.0721 -0.2454 -0.9667
vn -0.0905 -0.9801 0.1768
vn -0.3507 0.2667 0.8977
vn 0.0319 0.9956 -0.0879
vn -0.1287 0.9917 -0.0054
vn -0.3659 -0.1581 -0.9171
vn -0.0885 -0.9333 0.3481
vn 0.0781 0.0322 0.9964
vn -0.8048 0.3890 0.4483
vn 0.0997 -0.1001 0.9900
vn 0.3544 -0.9062 -0.2309
vn -0.6148 0.6870 -0.3873
vn 0.7576 0.6371 0.1417
vn -0.4963 -0.8566 -0.1414
vn -0.5795 0.3456 -0.7380
vn 0.3153 0.9457 0.0789
vn 0.5165 -0.1746 0.8383
vn -0.4462 -0.8946 0.0248
vn -0.0966 0.3990 -0.9118
vn -0.6188 0.7624 -0.1892
vn -0.9981 0.0389 -0.0476
vn 0.3375 -0.0253 0.9410
vn 0.3700 0.0706 0.9263
vn 0.3371 -0.0264 0.9411
vn -0.4443 -0.3345 -0.8311
vn 0.1167 -0.8726 -0.4743
vn 0.1836 -0.9271 -0.3268
vn 0.1793 -0.9243 -0.3371
vn -0.7770 -0.1283 0.6163
vn -0.7524 -0.1313 0.6454
vn -0.7532 -0.1312 0.6445
vn -0.1012 0.8260 0.5545
vn -0.1983 0.8735 0.4446
vn -0.1733 0.8631 0.4743
vn 0.7547 0.2606 -0.6020
vn 0.7621 0.3198 -0.5629
vn 0.7645 0.3514 -0.5404
vn 0.7505 0.4209 -0.5095
vn 0.7463 0.4309 -0.5074
vn 0.8359 0.4968 -0.2334
vn 0.8441 0.4914 -0.2145
vn -0.2855 0.8853 0.3670
vn -0.2586 0.8869 0.3827
vn -0.4545 0.8772 0.1550
vn -0.4617 0.8766 0.1358
vn -0.7543 -0.1518 0.6387
vn -0.7740 -0.1770 0.6079
vn -0.9094 -0.2974 0.2908
vn -0.9064 -0.2971 0.3002
vn 0.1847 -0.9381 -0.2929
vn 0.1906 -0.9388 -0.2870
vn 0.3736 -0.9239 -0.0829
vn 0.3511 -0.9298 -0.1104
vn 0.8753 0.4651 -0.1320
vn -0.4745 0.8748 0.0978
vn -0.9204 -0.2977 0.2535
vn 0.4429 -0.8965 0.0072
vn 0.2828 -0.1671 0.9445
vt 0.248537 0.982147
vt 0.226046 0.981520
vt 0.241240 0.910397
vt 0.268862 0.911301
vt 0.114559 0.664267
vt 0.120467 0.674546
vt 0.102683 0.690943
vt 0.095554 0.681790
vt 0.084832 0.928576
vt 0.111935 0.927689
vt 0.093807 0.993589
vt 0.071182 0.995545
vt 0.062657 0.532403
vt 0.038980 0.510646
vt 0.055384 0.496904
vt 0.074390 0.513716
vt 0.206633 0.992955
vt 0.198976 0.933797
vt 0.053958 0.937447
vt 0.047147 0.987281
vt 0.033030 0.985640
vt 0.012366 0.913612
vt 0.233471 0.826269
vt 0.255576 0.826992
vt 0.202822 0.824333
vt 0.096343 0.862018
vt 0.118817 0.861283
vt 0.025875 0.827895
vt 0.058335 0.825884
vt 0.042680 0.548249
vt 0.023875 0.523823
vt 0.188759 0.989965
vt 0.170929 0.925147
vt 0.164160 0.859831
vt 0.080981 0.707482
vt 0.091162 0.711148
vt 0.122700 0.738164
vt 0.115129 0.736465
vt 0.251997 0.802728
vt 0.231922 0.799989
vt 0.230921 0.767908
vt 0.250928 0.768446
vt 0.204026 0.795952
vt 0.205831 0.765872
vt 0.152893 0.644980
vt 0.135846 0.647292
vt 0.134035 0.617117
vt 0.151199 0.616743
vt 0.059822 0.798841
vt 0.029513 0.803226
vt 0.030600 0.768371
vt 0.057861 0.766159
vt 0.105511 0.653615
vt 0.087907 0.651228
vt 0.083077 0.622564
vt 0.100550 0.622934
vt 0.167518 0.834908
vt 0.162866 0.804107
vt 0.199043 0.766384
vt 0.115403 0.835943
vt 0.099488 0.841166
vt 0.104378 0.807660
vt 0.120133 0.804628
vt 0.065025 0.766662
vt 0.080034 0.593400
vt 0.097310 0.591764
vt 0.068423 0.733971
vt 0.108756 0.769954
vt 0.123999 0.769287
vt 0.159063 0.769346
vt 0.195905 0.736298
vt 0.033315 0.728648
vt 0.057069 0.728934
vt 0.133304 0.582747
vt 0.150514 0.584582
vt 0.206560 0.731611
vt 0.228423 0.731347
vt 0.248257 0.729375
vt 0.042229 0.698719
vt 0.063380 0.700860
vt 0.139131 0.556827
vt 0.149332 0.560543
vt 0.207819 0.706003
vt 0.227287 0.704032
vt 0.239490 0.699938
vt 0.075629 0.570003
vt 0.085336 0.566508
vt 0.160340 0.738735
vt 0.191360 0.712162
vt 0.052770 0.687220
vt 0.051984 0.662664
vt 0.065566 0.661961
vt 0.067403 0.685383
vt 0.099471 0.079962
vt 0.097713 0.049100
vt 0.124469 0.066439
vt 0.110702 0.089912
vt 0.155123 0.177238
vt 0.170108 0.174971
vt 0.161154 0.239832
vt 0.135320 0.238912
vt 0.160477 0.048722
vt 0.182360 0.047863
vt 0.186837 0.088417
vt 0.153357 0.080969
vt 0.228849 0.200473
vt 0.202468 0.240488
vt 0.194218 0.180719
vt 0.221054 0.170351
vt 0.127807 0.204383
vt 0.142899 0.166920
vt 0.176546 0.148355
vt 0.151965 0.148411
vt 0.234862 0.134757
vt 0.248277 0.141329
vt 0.094662 0.085797
vt 0.064269 0.088692
vt 0.067517 0.049118
vt 0.090232 0.050849
vt 0.112284 0.132166
vt 0.127969 0.123180
vt 0.840951 0.830496
vt 0.902301 0.761337
vt 0.936730 0.836819
vt 0.992761 0.760090
vt 0.374569 0.913586
vt 0.336093 0.982491
vt 0.276928 0.906424
vt 0.622440 0.228551
vt 0.561983 0.245145
vt 0.517903 0.211087
vt 0.433923 0.988914
vt 0.407564 0.825311
vt 0.516181 0.892990
vt 0.312525 0.786487
vt 0.851441 0.646156
vt 0.964110 0.643947
vt 0.769452 0.734313
vt 0.791796 0.428108
vt 0.704403 0.442643
vt 0.671558 0.366825
vt 0.767197 0.348027
vt 0.855559 0.376346
vt 0.854611 0.318865
vt 0.508939 0.582262
vt 0.458570 0.528989
vt 0.467312 0.472520
vt 0.547535 0.501734
vt 0.610513 0.607566
vt 0.648761 0.534149
vt 0.723243 0.067085
vt 0.776471 0.081224
vt 0.819196 0.058340
s 1
usemtl Arm
f 1/1/1 3/4/1 4/3/1 2/2/1
f 19/5/2 22/8/2 21/7/2 20/6/2
f 5/9/3 7/12/3 8/11/3 6/10/3
f 14/13/4 1/16/6 2/15/6 15/14/5
f 2/2/7 4/3/7 16/18/9 15/17/8
f 13/19/10 3/22/12 1/21/12 14/20/11
f 3/4/13 27/24/15 32/23/14 4/3/13
f 4/3/16 32/23/19 31/25/18 16/18/17
f 6/10/20 30/27/22 29/26/21 5/9/20
f 27/28/23 3/22/26 13/19/25 28/29/24
f 7/12/27 5/9/27 13/19/10 14/20/11
f 7/30/28 14/13/4 15/14/5 8/31/28
f 16/18/9 6/33/29 8/32/29 15/17/8
f 30/34/30 6/33/31 16/18/17 31/25/18
f 24/35/32 26/38/32 25/37/32 23/36/32
f 5/9/33 29/26/34 28/29/24 13/19/25
f 9/39/35 37/42/37 40/41/36 10/40/35
f 10/40/38 40/41/40 39/44/39 17/43/38
f 17/45/41 39/48/43 38/47/42 18/46/41
f 18/49/44 38/52/46 37/51/45 9/50/44
f 18/53/47 34/56/49 33/55/48 17/54/47
f 17/43/50 33/59/52 36/58/51 11/57/50
f 11/60/53 36/63/55 35/62/54 12/61/53
f 12/61/56 35/62/58 34/64/57 18/49/56
f 18/49/59 9/50/60 27/28/23 28/29/24
f 29/26/34 12/61/61 18/49/59 28/29/24
f 30/27/22 11/60/62 12/61/62 29/26/21
f 17/43/63 11/57/64 30/34/30 31/25/18
f 32/23/19 10/40/65 17/43/63 31/25/18
f 27/24/15 9/39/66 10/40/66 32/23/14
f 34/56/49 46/66/68 45/65/67 33/55/48
f 35/62/58 47/68/70 46/67/69 34/64/57
f 36/63/55 48/69/72 47/68/71 35/62/54
f 33/59/52 45/71/74 48/70/73 36/58/51
f 38/52/46 42/73/76 41/72/75 37/51/45
f 39/48/43 43/75/78 42/74/77 38/47/42
f 40/41/40 44/77/80 43/76/79 39/44/39
f 37/42/37 41/78/82 44/77/81 40/41/36
f 42/73/76 22/80/83 19/79/83 41/72/75
f 43/75/78 21/82/84 22/81/84 42/74/77
f 44/77/80 20/84/85 21/83/85 43/76/79
f 41/78/82 19/85/86 20/84/86 44/77/81
f 46/66/68 24/87/87 23/86/87 45/65/67
f 47/68/70 26/38/88 24/35/88 46/67/69
f 48/69/72 25/37/89 26/38/89 47/68/71
f 45/71/74 23/89/90 25/88/90 48/70/73
f 57/90/91 60/93/91 59/92/91 58/91/91
f 51/94/92 53/97/92 54/96/92 52/95/92
f 53/98/93 55/101/93 56/100/93 54/99/93
f 55/102/94 49/105/94 50/104/94 56/103/94
f 50/106/95 52/109/95 54/108/95 56/107/95
f 55/101/96 53/98/96 51/111/96 49/110/96
f 49/105/97 57/113/97 58/112/97 50/104/97
f 50/106/98 58/115/98 59/114/98 52/109/98
f 52/116/99 59/119/99 60/118/99 51/117/99
f 51/111/100 60/121/100 57/120/100 49/110/100
f 61/122/101 63/124/101 62/123/101
f 63/124/102 65/125/102 62/123/102
f 64/126/103 65/128/103 63/127/103
f 66/129/104 68/131/106 67/130/105
f 63/127/107 61/132/107 64/126/107
f 61/132/108 78/134/110 81/133/109 64/126/108
f 64/126/111 81/133/113 80/135/112 65/128/111
f 65/125/114 80/137/116 79/136/115 62/123/114
f 62/123/117 79/136/119 78/138/118 61/122/117
f 71/139/120 75/142/123 74/141/122 70/140/121
f 72/143/124 76/144/127 75/142/126 71/139/125
f 73/145/128 77/148/131 76/147/130 72/146/129
f 70/149/132 74/150/135 77/148/134 73/145/133
f 75/142/123 69/152/136 66/151/136 74/141/122
f 76/144/127 68/153/137 69/152/137 75/142/126
f 77/148/131 67/130/138 68/131/138 76/147/130
f 74/150/135 66/129/139 67/130/139 77/148/134
f 79/136/119 71/139/120 70/140/121 78/138/118
f 80/137/116 72/143/124 71/139/125 79/136/115
f 81/133/113 73/145/128 72/146/129 80/135/112
f 78/134/110 70/149/132 73/145/133 81/133/109
f 66/151/104 69/152/140 68/153/106
