# Blender 5.1.0
# www.blender.org
mtllib RightPlayerHands.mtl
o Arm
v -3.621541 6.579688 2.170566
v -3.776336 6.642559 2.280587
v -3.282320 6.770855 2.471606
v -3.473040 6.853868 2.609447
v -3.462252 6.104473 2.617316
v -3.647819 6.184678 2.749024
v -3.728909 6.225406 2.231618
v -3.901413 6.344760 2.355172
v -2.886331 6.691231 3.076959
v -2.990529 6.723483 3.188970
v -3.226660 6.104184 3.226481
v -3.146722 6.031442 3.112309
v -3.463424 6.413147 2.479821
v -3.635164 6.408005 2.197484
v -3.870019 6.482986 2.282536
v -3.664895 6.500324 2.623204
v -2.951933 6.522326 3.261746
v -2.932097 6.475476 3.157731
v -2.343212 6.702959 2.974578
v -2.330509 6.718999 3.068002
v -2.295192 6.543712 3.143946
v -2.304038 6.516165 3.047171
v -2.360000 6.374273 3.214828
v -2.327600 6.351367 3.129034
v -2.509566 6.068236 3.291238
v -2.487738 6.020126 3.211833
v -2.967426 6.708193 2.953511
v -3.044401 6.469848 3.068470
v -3.220382 6.046467 2.996270
v -3.372674 6.113039 3.104424
v -3.180730 6.533084 3.177786
v -3.121226 6.774697 3.062786
v -2.738287 6.456673 3.214471
v -2.725944 6.418157 3.077301
v -2.962889 5.997444 3.148708
v -2.973257 6.063135 3.286088
v -2.736728 6.690360 3.017204
v -2.719241 6.485159 3.114157
v -2.714569 6.535612 3.257985
v -2.757163 6.726765 3.164904
v -2.500083 6.678267 2.991498
v -2.481299 6.482226 3.080446
v -2.477347 6.534444 3.229454
v -2.502745 6.717207 3.146837
v -2.526541 6.421368 3.203330
v -2.500718 6.382370 3.050969
v -2.702729 5.972924 3.145278
v -2.713485 6.040489 3.284886
v -3.083290 6.772884 2.694332
v -3.193147 6.988320 2.795230
v -2.943415 6.851958 2.858992
v -3.089878 7.031004 2.907985
v -2.987578 6.742698 2.917361
v -3.185000 6.767407 3.023062
v -3.282053 6.782864 2.518478
v -3.468444 6.826989 2.612764
v -2.788795 7.099235 2.662545
v -2.921396 7.224588 2.699546
v -2.879953 7.240035 2.805418
v -2.743497 7.127848 2.779407
v -2.535059 7.115948 -5.077269
v -2.542593 8.145846 -4.625162
v -1.806421 7.571242 -5.016177
v -1.570136 6.711319 -4.671498
v -1.592081 7.764445 -4.215487
v -4.188692 6.271409 2.264646
v -3.575631 5.995874 2.362835
v -3.483013 6.623385 2.348631
v -3.989371 6.822975 2.372956
v -4.270241 6.203322 -1.510976
v -3.895377 6.983687 -1.322725
v -3.341326 6.627127 -0.838035
v -3.280914 6.044059 -1.264270
v -4.616868 6.018544 -0.769781
v -4.213542 6.902982 -0.542309
v -3.415322 6.555769 -0.288781
v -3.600604 5.765108 -0.473604
v -3.012287 6.687172 -4.184998
v -3.183891 7.541567 -3.420820
v -2.122904 7.296388 -3.380349
v -1.908760 6.300492 -3.637122
vn -0.0178 0.8507 -0.5254
vn 0.9793 0.1426 -0.1436
vn -0.4831 -0.8755 0.0068
vn -0.4628 -0.0215 -0.8862
vn -0.4661 -0.0304 -0.8842
vn -0.4296 0.0606 -0.9010
vn -0.7793 0.4471 0.4391
vn -0.7907 0.3635 0.4927
vn -0.7907 0.3637 0.4925
vn 0.7614 -0.3278 -0.5593
vn 0.7614 -0.3280 -0.5592
vn 0.7636 -0.3182 -0.5618
vn 0.3364 0.9366 -0.0977
vn 0.3403 0.9363 -0.0874
vn 0.3409 0.9363 -0.0849
vn -0.6893 0.4190 0.5910
vn -0.7217 0.3181 0.6148
vn -0.6043 0.2807 0.7457
vn -0.6248 0.3885 0.6773
vn -0.3485 -0.9338 0.0805
vn -0.3492 -0.9302 0.1128
vn -0.3496 -0.9307 0.1074
vn 0.7154 -0.4195 -0.5587
vn 0.7314 -0.3264 -0.5988
vn 0.7778 -0.3323 -0.5335
vn 0.7442 -0.4282 -0.5126
vn 0.7591 -0.3375 -0.5567
vn -0.4900 -0.0972 -0.8663
vn -0.7941 0.2644 0.5473
vn -0.6607 0.2085 0.7211
vn -0.7440 0.2218 0.6303
vn 0.8549 -0.3119 0.4147
vn 0.8014 -0.2402 -0.5477
vn 0.7668 -0.2380 -0.5961
vn -0.0685 0.9559 -0.2856
vn -0.0280 0.9635 -0.2664
vn -0.0100 0.9663 -0.2572
vn 0.0403 0.3961 0.9173
vn 0.0699 0.4181 0.9057
vn 0.0645 0.4140 0.9080
vn 0.0860 -0.9256 0.3686
vn 0.0566 -0.9358 0.3480
vn 0.0591 -0.9350 0.3496
vn -0.2473 -0.3627 -0.8985
vn -0.1870 -0.3948 -0.8995
vn -0.1875 -0.3946 -0.8995
vn 0.1805 0.9345 -0.3067
vn 0.1620 0.9466 -0.2788
vn 0.1525 0.9522 -0.2646
vn -0.0141 0.0536 0.9985
vn 0.0085 0.0969 0.9953
vn 0.0223 0.1231 0.9921
vn -0.2397 -0.8843 0.4006
vn -0.1557 -0.8960 0.4158
vn -0.1591 -0.8957 0.4152
vn -0.1062 0.0256 -0.9940
vn -0.0906 -0.0827 -0.9924
vn -0.0964 -0.0435 -0.9944
vn 0.6939 -0.3259 -0.6421
vn 0.6519 -0.4418 -0.6163
vn 0.7154 -0.2329 -0.6587
vn -0.3381 -0.9150 0.2202
vn -0.4548 0.2332 0.8595
vn -0.4703 0.1491 0.8698
vn -0.4201 0.3710 0.8281
vn 0.3362 0.9414 -0.0281
vn 0.1824 0.9589 -0.2173
vn 0.1930 0.9581 -0.2119
vn 0.1456 -0.2787 -0.9493
vn 0.0472 -0.2259 -0.9730
vn -0.0231 -0.8942 0.4471
vn -0.0211 -0.8940 0.4476
vn 0.0185 0.1918 0.9813
vn -0.0007 0.2082 0.9781
vn -0.1217 -0.4170 -0.9007
vn -0.1229 -0.4172 -0.9005
vn 0.1213 -0.9421 0.3127
vn 0.1019 -0.9431 0.3166
vn 0.2327 0.4425 0.8661
vn 0.2309 0.4425 0.8665
vn -0.0373 0.9715 -0.2339
vn -0.0577 0.9715 -0.2297
vn -0.0679 -0.3966 -0.9155
vn 0.2087 -0.9334 0.2920
vn 0.3692 0.4279 0.8250
vn -0.1385 0.9682 -0.2084
vn 0.2655 0.9469 -0.1812
vn 0.3377 -0.3719 -0.8647
vn 0.0744 -0.8772 0.4744
vn -0.0342 0.2399 0.9702
vn 0.5661 0.7384 -0.3665
vn 0.4999 0.2047 0.8415
vn -0.1748 -0.9846 0.0035
vn 0.2370 0.7421 -0.6270
vn -0.6825 0.5123 0.5212
vn 0.4866 -0.8133 -0.3189
vn -0.3418 0.1332 -0.9303
vn -0.6170 0.7594 0.2065
vn 0.3282 0.0763 0.9415
vn 0.7297 -0.6424 -0.2342
vn -0.1711 0.3950 -0.9026
vn 0.4692 0.8215 -0.3238
vn 0.9466 0.1445 -0.2883
vn -0.0940 -0.0488 0.9944
vn -0.1392 0.0429 0.9893
vn -0.0935 -0.0498 0.9944
vn 0.2621 -0.2961 -0.9185
vn -0.1347 -0.8862 -0.4432
vn -0.1575 -0.9456 -0.2846
vn -0.1561 -0.9425 -0.2956
vn 0.9126 -0.0365 0.4072
vn 0.8963 -0.0417 0.4414
vn 0.8969 -0.0415 0.4403
vn 0.1442 0.8393 0.5242
vn 0.2059 0.8955 0.3945
vn 0.1903 0.8829 0.4293
vn -0.9018 0.1706 -0.3971
vn -0.9057 0.2291 -0.3566
vn -0.9059 0.2607 -0.3337
vn -0.8923 0.3316 -0.3062
vn -0.8888 0.3420 -0.3051
vn -0.9157 0.4016 -0.0167
vn -0.9184 0.3956 0.0036
vn 0.2700 0.9155 0.2982
vn 0.2476 0.9145 0.3201
vn 0.3822 0.9226 0.0514
vn 0.3845 0.9226 0.0311
vn 0.8987 -0.0620 0.4342
vn 0.9129 -0.0853 0.3991
vn 0.9792 -0.1948 0.0571
vn 0.9786 -0.1946 0.0669
vn -0.1491 -0.9563 -0.2516
vn -0.1533 -0.9575 -0.2445
vn -0.2818 -0.9595 -0.0018
vn -0.2661 -0.9633 -0.0340
vn -0.9257 0.3672 0.0908
vn 0.3879 0.9217 -0.0089
vn 0.9808 -0.1944 0.0182
vn -0.3296 -0.9385 0.1028
vn -0.0253 -0.1838 0.9826
vt 0.248537 0.982147
vt 0.226046 0.981520
vt 0.241240 0.910397
vt 0.268862 0.911301
vt 0.114559 0.664267
vt 0.120467 0.674546
vt 0.102683 0.690943
vt 0.095554 0.681790
vt 0.084832 0.928576
vt 0.111935 0.927689
vt 0.093807 0.993589
vt 0.071182 0.995545
vt 0.062657 0.532403
vt 0.038980 0.510646
vt 0.055384 0.496904
vt 0.074390 0.513716
vt 0.206633 0.992955
vt 0.198976 0.933797
vt 0.053958 0.937447
vt 0.047147 0.987281
vt 0.033030 0.985640
vt 0.012366 0.913612
vt 0.233471 0.826269
vt 0.255576 0.826992
vt 0.202822 0.824333
vt 0.096343 0.862018
vt 0.118817 0.861283
vt 0.025875 0.827895
vt 0.058335 0.825884
vt 0.042680 0.548249
vt 0.023875 0.523823
vt 0.188759 0.989965
vt 0.170929 0.925147
vt 0.164160 0.859831
vt 0.080981 0.707482
vt 0.091162 0.711148
vt 0.122700 0.738164
vt 0.115129 0.736465
vt 0.251997 0.802728
vt 0.231922 0.799989
vt 0.230921 0.767908
vt 0.250928 0.768446
vt 0.204026 0.795952
vt 0.205831 0.765872
vt 0.152893 0.644980
vt 0.135846 0.647292
vt 0.134035 0.617117
vt 0.151199 0.616743
vt 0.059822 0.798841
vt 0.029513 0.803226
vt 0.030600 0.768371
vt 0.057861 0.766159
vt 0.105511 0.653615
vt 0.087907 0.651228
vt 0.083077 0.622564
vt 0.100550 0.622934
vt 0.167518 0.834908
vt 0.162866 0.804107
vt 0.199043 0.766384
vt 0.115403 0.835943
vt 0.099488 0.841166
vt 0.104378 0.807660
vt 0.120133 0.804628
vt 0.065025 0.766662
vt 0.080034 0.593400
vt 0.097310 0.591764
vt 0.068423 0.733971
vt 0.108756 0.769954
vt 0.123999 0.769287
vt 0.159063 0.769346
vt 0.195905 0.736298
vt 0.033315 0.728648
vt 0.057069 0.728934
vt 0.133304 0.582747
vt 0.150514 0.584582
vt 0.206560 0.731611
vt 0.228423 0.731347
vt 0.248257 0.729375
vt 0.042229 0.698719
vt 0.063380 0.700860
vt 0.139131 0.556827
vt 0.149332 0.560543
vt 0.207819 0.706003
vt 0.227287 0.704032
vt 0.239490 0.699938
vt 0.075629 0.570003
vt 0.085336 0.566508
vt 0.160340 0.738735
vt 0.191360 0.712162
vt 0.052770 0.687220
vt 0.051984 0.662664
vt 0.065566 0.661961
vt 0.067403 0.685383
vt 0.099471 0.079962
vt 0.097713 0.049100
vt 0.124469 0.066439
vt 0.110702 0.089912
vt 0.155123 0.177238
vt 0.170108 0.174971
vt 0.161154 0.239832
vt 0.135320 0.238912
vt 0.160477 0.048722
vt 0.182360 0.047863
vt 0.186837 0.088417
vt 0.153357 0.080969
vt 0.228849 0.200473
vt 0.202468 0.240488
vt 0.194218 0.180719
vt 0.221054 0.170351
vt 0.127807 0.204383
vt 0.142899 0.166920
vt 0.176546 0.148355
vt 0.151965 0.148411
vt 0.234862 0.134757
vt 0.248277 0.141329
vt 0.094662 0.085797
vt 0.064269 0.088692
vt 0.067517 0.049118
vt 0.090232 0.050849
vt 0.112284 0.132166
vt 0.127969 0.123180
vt 0.840951 0.830496
vt 0.902301 0.761337
vt 0.936730 0.836819
vt 0.992761 0.760090
vt 0.374569 0.913586
vt 0.336093 0.982491
vt 0.276928 0.906424
vt 0.622440 0.228551
vt 0.561983 0.245145
vt 0.517903 0.211087
vt 0.433923 0.988914
vt 0.407564 0.825311
vt 0.516181 0.892990
vt 0.312525 0.786487
vt 0.851441 0.646156
vt 0.964110 0.643947
vt 0.769452 0.734313
vt 0.791796 0.428108
vt 0.704403 0.442643
vt 0.671558 0.366825
vt 0.767197 0.348027
vt 0.855559 0.376346
vt 0.854611 0.318865
vt 0.508939 0.582262
vt 0.458570 0.528989
vt 0.467312 0.472520
vt 0.547535 0.501734
vt 0.610513 0.607566
vt 0.648761 0.534149
vt 0.723243 0.067085
vt 0.776471 0.081224
vt 0.819196 0.058340
s 1
usemtl Arm
f 1/1/1 2/2/1 4/3/1 3/4/1
f 19/5/2 20/6/2 21/7/2 22/8/2
f 5/9/3 6/10/3 8/11/3 7/12/3
f 14/13/4 15/14/5 2/15/6 1/16/6
f 2/2/7 15/17/8 16/18/9 4/3/7
f 13/19/10 14/20/11 1/21/12 3/22/12
f 3/4/13 4/3/13 32/23/14 27/24/15
f 4/3/16 16/18/17 31/25/18 32/23/19
f 6/10/20 5/9/20 29/26/21 30/27/22
f 27/28/23 28/29/24 13/19/25 3/22/26
f 7/12/27 14/20/11 13/19/10 5/9/27
f 7/30/28 8/31/28 15/14/5 14/13/4
f 16/18/9 15/17/8 8/32/29 6/33/29
f 30/34/30 31/25/18 16/18/17 6/33/31
f 24/35/32 23/36/32 25/37/32 26/38/32
f 5/9/33 13/19/25 28/29/24 29/26/34
f 9/39/35 10/40/35 40/41/36 37/42/37
f 10/40/38 17/43/38 39/44/39 40/41/40
f 17/45/41 18/46/41 38/47/42 39/48/43
f 18/49/44 9/50/44 37/51/45 38/52/46
f 18/53/47 17/54/47 33/55/48 34/56/49
f 17/43/50 11/57/50 36/58/51 33/59/52
f 11/60/53 12/61/53 35/62/54 36/63/55
f 12/61/56 18/49/56 34/64/57 35/62/58
f 18/49/59 28/29/24 27/28/23 9/50/60
f 29/26/34 28/29/24 18/49/59 12/61/61
f 30/27/22 29/26/21 12/61/62 11/60/62
f 17/43/63 31/25/18 30/34/30 11/57/64
f 32/23/19 31/25/18 17/43/63 10/40/65
f 27/24/15 32/23/14 10/40/66 9/39/66
f 34/56/49 33/55/48 45/65/67 46/66/68
f 35/62/58 34/64/57 46/67/69 47/68/70
f 36/63/55 35/62/54 47/68/71 48/69/72
f 33/59/52 36/58/51 48/70/73 45/71/74
f 38/52/46 37/51/45 41/72/75 42/73/76
f 39/48/43 38/47/42 42/74/77 43/75/78
f 40/41/40 39/44/39 43/76/79 44/77/80
f 37/42/37 40/41/36 44/77/81 41/78/82
f 42/73/76 41/72/75 19/79/83 22/80/83
f 43/75/78 42/74/77 22/81/84 21/82/84
f 44/77/80 43/76/79 21/83/85 20/84/85
f 41/78/82 44/77/81 20/84/86 19/85/86
f 46/66/68 45/65/67 23/86/87 24/87/87
f 47/68/70 46/67/69 24/35/88 26/38/88
f 48/69/72 47/68/71 26/38/89 25/37/89
f 45/71/74 48/70/73 25/88/90 23/89/90
f 57/90/91 58/91/91 59/92/91 60/93/91
f 51/94/92 52/95/92 54/96/92 53/97/92
f 53/98/93 54/99/93 56/100/93 55/101/93
f 55/102/94 56/103/94 50/104/94 49/105/94
f 50/106/95 56/107/95 54/108/95 52/109/95
f 55/101/96 49/110/96 51/111/96 53/98/96
f 49/105/97 50/104/97 58/112/97 57/113/97
f 50/106/98 52/109/98 59/114/98 58/115/98
f 52/116/99 51/117/99 60/118/99 59/119/99
f 51/111/100 49/110/100 57/120/100 60/121/100
f 61/122/101 62/123/101 63/124/101
f 63/124/102 62/123/102 65/125/102
f 64/126/103 63/127/103 65/128/103
f 66/129/104 67/130/105 68/131/106
f 63/127/107 64/126/107 61/132/107
f 61/132/108 64/126/108 81/133/109 78/134/110
f 64/126/111 65/128/111 80/135/112 81/133/113
f 65/125/114 62/123/114 79/136/115 80/137/116
f 62/123/117 61/122/117 78/138/118 79/136/119
f 71/139/120 70/140/121 74/141/122 75/142/123
f 72/143/124 71/139/125 75/142/126 76/144/127
f 73/145/128 72/146/129 76/147/130 77/148/131
f 70/149/132 73/145/133 77/148/134 74/150/135
f 75/142/123 74/141/122 66/151/136 69/152/136
f 76/144/127 75/142/126 69/152/137 68/153/137
f 77/148/131 76/147/130 68/131/138 67/130/138
f 74/150/135 77/148/134 67/130/139 66/129/139
f 79/136/119 78/138/118 70/140/121 71/139/120
f 80/137/116 79/136/115 71/139/125 72/143/124
f 81/133/113 80/135/112 72/146/129 73/145/128
f 78/134/110 81/133/109 73/145/133 70/149/132
f 66/151/104 68/153/106 69/152/140
