# This file uses centimeters as units for non-parametric coordinates.

mtllib taxi meter done.mtl
g default
v -0.356670 5.742909 2.977259
v -0.356670 3.369715 2.977259
v -0.356670 5.742909 -2.945744
v -0.356670 3.369715 -2.945744
v -0.356670 2.662805 2.977259
v -0.356670 2.662805 -2.945744
v 2.726365 5.673847 2.844454
v 2.726365 3.407077 2.844454
v 2.726365 3.407076 -2.812939
v 2.726365 5.673847 -2.812939
v 2.624958 2.731867 2.844454
v 2.624958 2.731867 -2.812939
v 2.132172 5.742909 2.977259
v 2.132172 5.742909 -2.945744
v 2.132172 3.369715 -2.945744
v 2.132172 2.662805 -2.945744
v 2.132172 2.662805 2.977259
v 2.132172 3.369715 2.977259
v 2.726365 5.569691 2.584502
v 2.726365 3.511232 2.584502
v 2.726365 3.511232 -2.552988
v 2.726365 5.569691 -2.552988
vt 0.993407 0.970484
vt 0.571528 0.467345
vt 0.573988 0.249387
vt 0.658056 0.254607
vt 0.569854 0.237753
vt 0.567198 0.478712
vt 0.539385 0.476376
vt 0.542420 0.239802
vt 0.152001 0.694280
vt 0.152055 0.367760
vt 0.282883 0.367781
vt 0.282829 0.694302
vt 0.321853 0.367788
vt 0.321799 0.694308
vt 0.561788 0.505814
vt 0.151978 0.831484
vt 0.682665 0.228301
vt 0.564415 0.210650
vt 0.520745 0.488205
vt 0.523163 0.227657
vt 0.661827 0.473044
vt 0.662519 0.244222
vt 0.282807 0.831505
vt 0.683041 0.489254
vt 0.459003 0.694331
vt 0.321876 0.230584
vt 0.282905 0.230578
vt 0.014851 0.367737
vt 0.657509 0.462716
vt 0.993302 0.231644
vt 0.697268 0.231686
vt 0.697373 0.970526
vt 0.459056 0.367810
vt 0.321777 0.831512
vt 0.152077 0.230556
vt 0.014798 0.694258
vn 1.000000 0.000000 0.000000
vn 1.000000 0.000000 0.000000
vn 1.000000 0.000000 0.000000
vn 1.000000 0.000000 0.000000
vn 0.988909 -0.148521 0.000000
vn 0.988909 -0.148521 0.000000
vn 0.988909 -0.148521 0.000000
vn 0.988909 -0.148521 0.000000
vn -1.000000 -0.000000 0.000000
vn -1.000000 -0.000000 0.000000
vn -1.000000 -0.000000 0.000000
vn -1.000000 -0.000000 0.000000
vn -1.000000 -0.000000 0.000000
vn -1.000000 -0.000000 0.000000
vn -1.000000 -0.000000 0.000000
vn -1.000000 -0.000000 0.000000
vn 0.000000 0.000000 1.000000
vn 0.000000 0.000000 1.000000
vn 0.040911 0.000000 0.999163
vn 0.039762 0.000000 0.999209
vn 0.000000 0.000000 -1.000000
vn 0.000000 0.000000 -1.000000
vn 0.039762 0.000000 -0.999209
vn 0.040911 0.000000 -0.999163
vn 0.000000 1.000000 0.000000
vn 0.000000 1.000000 0.000000
vn 0.019443 0.999811 0.000000
vn 0.019443 0.999811 0.000000
vn 0.000000 0.000000 1.000000
vn 0.000000 0.000000 1.000000
vn 0.039922 -0.002929 0.999199
vn 0.044374 -0.003256 0.999010
vn 0.000000 -1.000000 0.000000
vn 0.000000 -1.000000 0.000000
vn 0.019474 -0.999810 0.000000
vn 0.019474 -0.999810 0.000000
vn 0.000000 0.000000 -1.000000
vn 0.000000 0.000000 -1.000000
vn 0.044374 -0.003256 -0.999010
vn 0.039922 -0.002929 -0.999199
vn 0.115451 0.993313 0.000000
vn 0.115451 0.993313 0.000000
vn 0.218123 0.000000 -0.975921
vn 0.218123 0.000000 -0.975921
vn 0.238955 -0.017532 -0.970872
vn 0.238955 -0.017532 -0.970872
vn 0.138789 -0.990322 0.000000
vn 0.138789 -0.990322 0.000000
vn 0.238956 -0.017533 0.970872
vn 0.238956 -0.017533 0.970872
vn 0.218124 0.000000 0.975921
vn 0.218124 0.000000 0.975921
vn 1.000000 0.000000 0.000000
vn 1.000000 0.000000 0.000000
vn 1.000000 0.000000 0.000000
vn 1.000000 0.000000 0.000000
vn 1.000000 0.000000 0.000000
vn 1.000000 0.000000 0.000000
vn 1.000000 0.000000 0.000000
vn 1.000000 0.000000 0.000000
vn 1.000000 0.000000 -0.000000
vn 1.000000 0.000000 -0.000000
vn 1.000000 0.000000 -0.000000
vn 1.000000 0.000000 -0.000000
vn 1.000000 0.000000 0.000000
vn 1.000000 0.000000 0.000000
vn 1.000000 0.000000 0.000000
vn 1.000000 0.000000 0.000000
s off
g Taxi_Meter_Screen
usemtl initialShadingGroup
f 19/1/1 20/32/2 21/31/3 22/30/4
f 9/5/5 8/6/6 11/7/7 12/8/8
f 1/9/9 3/10/10 4/11/11 2/12/12
f 4/11/13 6/13/14 5/14/15 2/12/16
s 1
f 1/9/17 2/12/18 18/23/19 13/16/20
s 2
f 4/11/21 3/10/22 14/35/23 15/27/24
s 3
f 3/10/25 1/9/26 13/36/27 14/28/28
s 4
f 2/12/29 5/14/30 17/34/31 18/23/32
s 5
f 5/14/33 6/13/34 16/33/35 17/25/36
s 6
f 6/13/37 4/11/38 15/27/39 16/26/40
s 3
f 14/17/28 13/24/27 7/21/41 10/22/42
s 2
f 15/18/24 14/17/23 10/22/43 9/5/44
s 6
f 16/20/40 15/18/39 9/5/45 12/8/46
s 5
f 17/19/36 16/20/35 12/8/47 11/7/48
s 4
f 18/15/32 17/19/31 11/7/49 8/6/50
s 1
f 13/24/20 18/15/19 8/6/51 7/21/52
s off
f 7/21/53 8/6/54 20/2/55 19/29/56
f 8/6/57 9/5/58 21/3/59 20/2/60
f 9/5/61 10/22/62 22/4/63 21/3/64
f 10/22/65 7/21/66 19/29/67 22/4/68
g default
v 1.565276 1.310569 -0.564445
v 1.155183 1.310569 -0.697693
v 0.590738 1.310569 -0.410093
v 0.457490 1.310569 0.000000
v 0.590738 1.310569 0.410093
v 1.155183 1.310569 0.697692
v 1.565276 1.310569 0.564445
v 1.852875 1.310569 0.000000
v 1.565276 2.965381 -0.564445
v 1.155183 2.965381 -0.697693
v 0.590738 2.965381 -0.410093
v 0.457490 2.965381 0.000000
v 0.590738 2.965381 0.410093
v 1.155183 2.965381 0.697692
v 1.565276 2.965381 0.564445
v 1.852875 2.965381 0.000000
v 1.155183 1.310569 0.000000
v 1.155183 2.965381 0.000000
vt 0.032811 0.055642
vt 0.105139 0.057832
vt 0.104603 0.069616
vt 0.032880 0.067002
vt 0.032290 0.078369
vt 0.104754 0.081372
vt 0.106783 0.099262
vt 0.029698 0.096581
vt 0.026231 0.110590
vt 0.109829 0.113320
vt 0.121773 0.133785
vt 0.013978 0.000000
vt 0.027932 0.025464
vt 0.111407 0.023679
vt 0.107773 0.038712
vt 0.030881 0.038562
vt 0.137186 0.069221
vt 0.000000 0.066866
vt 0.011325 0.135211
vt 0.123767 0.003611
vn -0.707107 0.000000 -0.707107
vn -0.707107 0.000000 -0.707107
vn -1.000000 0.000000 0.000000
vn -1.000000 0.000000 0.000000
vn -0.707107 0.000000 0.707107
vn -0.707107 0.000000 0.707107
vn -0.156435 0.000000 0.987688
vn -0.156435 0.000000 0.987688
vn 0.707107 0.000000 0.707107
vn 0.707107 0.000000 0.707107
vn 1.000000 0.000000 0.000000
vn 1.000000 0.000000 0.000000
vn 0.707107 0.000000 -0.707107
vn 0.707107 0.000000 -0.707107
vn -0.156435 0.000000 -0.987688
vn -0.156435 0.000000 -0.987688
vn 0.000000 -1.000000 -0.000000
vn 0.000000 -1.000000 -0.000000
vn 0.000000 -1.000000 -0.000000
vn 0.000000 -1.000000 -0.000000
vn 0.000000 -1.000000 0.000000
vn 0.000000 -1.000000 0.000000
vn 0.000000 -1.000000 0.000000
vn 0.000000 -1.000000 0.000000
vn 0.000000 -1.000000 0.000000
vn 0.000000 1.000000 0.000000
vn 0.000000 1.000000 0.000000
vn 0.000000 1.000000 0.000000
vn 0.000000 1.000000 0.000000
vn 0.000000 1.000000 0.000000
vn 0.000000 1.000000 0.000000
vn 0.000000 1.000000 0.000000
vn 0.000000 1.000000 0.000000
vn 0.000000 1.000000 0.000000
s 1
g Taxi_Meter_Screen Pole
usemtl initialShadingGroup
f 33/37/69 25/38/70 26/39/71 34/40/72
f 35/41/73 27/42/74 28/43/75 36/44/76
f 37/45/77 29/46/78 30/47/79 38/55/80
f 31/49/81 23/50/82 24/51/83 32/52/84
s 2
f 24/51/85 39/53/86 26/39/87 25/38/88
f 26/39/87 39/53/86 28/43/89 27/42/90
f 28/43/89 39/53/86 30/47/91 29/46/92
f 23/50/93 30/56/91 39/53/86 24/51/85
s 3
f 40/54/94 32/52/95 33/37/96 34/40/97
f 40/54/94 34/40/97 35/41/98 36/44/99
f 40/54/94 36/44/99 37/45/100 38/55/101
f 40/54/94 38/48/101 31/49/102 32/52/95
s 1
f 31/49/81 38/48/80 30/56/79 23/50/82
f 32/52/84 24/51/83 25/38/70 33/37/69
f 34/40/72 26/39/71 27/42/74 35/41/73
f 36/44/76 28/43/75 29/46/78 37/45/77
g default
v -1.113728 0.473954 3.873843
v 3.337055 0.473954 3.873843
v -1.113728 1.162111 3.873843
v 3.337055 1.162111 3.873843
v -1.113728 1.162111 -3.873843
v 3.337055 1.162111 -3.873843
v -1.113728 0.473954 -3.873843
v 3.337055 0.473954 -3.873843
v -0.812063 1.373121 3.348722
v 3.035391 1.373121 3.348722
v 3.035391 1.373121 -3.348722
v -0.812063 1.373121 -3.348722
vt 1.000000 0.182458
vt 0.182433 0.182433
vt 0.502437 0.845611
vt 0.689889 0.845582
vt 0.675108 0.822976
vt 0.517140 0.822802
vt 0.517180 0.547512
vt 0.675147 0.547686
vt 0.689850 0.524877
vt 0.502399 0.524906
vt 0.500000 0.182443
vt 0.500006 0.000011
vt 0.682432 0.182448
vt 0.182438 0.000001
vt 0.182432 0.210640
vt 0.500000 0.210650
vt 0.000000 0.210634
vt 0.999999 0.210665
vt 0.682431 0.210655
vt 0.000001 0.182427
vn 0.000000 0.000000 1.000000
vn 0.000000 0.000000 1.000000
vn 0.000000 0.000000 1.000000
vn 0.000000 0.000000 1.000000
vn 0.000000 1.000000 0.000000
vn 0.000000 1.000000 0.000000
vn 0.000000 1.000000 0.000000
vn 0.000000 1.000000 0.000000
vn 0.000000 0.000000 -1.000000
vn 0.000000 0.000000 -1.000000
vn 0.000000 0.000000 -1.000000
vn 0.000000 0.000000 -1.000000
vn 0.000000 -1.000000 0.000000
vn 0.000000 -1.000000 0.000000
vn 0.000000 -1.000000 0.000000
vn 0.000000 -1.000000 0.000000
vn 1.000000 0.000000 0.000000
vn 1.000000 0.000000 0.000000
vn 1.000000 0.000000 0.000000
vn 1.000000 0.000000 0.000000
vn -1.000000 0.000000 0.000000
vn -1.000000 0.000000 0.000000
vn -1.000000 0.000000 0.000000
vn -1.000000 0.000000 0.000000
vn 0.000000 0.927889 0.372856
vn 0.000000 0.927889 0.372856
vn 0.000000 0.927889 0.372856
vn 0.000000 0.927889 0.372855
vn 0.573181 0.819429 0.000000
vn 0.573181 0.819429 0.000000
vn 0.573181 0.819429 0.000000
vn 0.573181 0.819429 0.000000
vn 0.000000 0.927889 -0.372856
vn 0.000000 0.927889 -0.372856
vn 0.000000 0.927889 -0.372855
vn 0.000000 0.927889 -0.372856
vn -0.573180 0.819429 0.000000
vn -0.573180 0.819429 0.000000
vn -0.573180 0.819429 0.000000
vn -0.573180 0.819429 0.000000
s off
g Taxi_Meter_Screen Holder1
usemtl initialShadingGroup
f 41/76/103 42/58/104 44/71/105 43/73/106
f 49/61/107 50/62/108 51/63/109 52/64/110
f 45/75/111 46/72/112 48/67/113 47/69/114
f 47/68/115 48/67/116 42/58/117 41/70/118
f 42/58/119 48/67/120 46/72/121 44/71/122
f 47/69/123 41/57/124 43/74/125 45/75/126
f 43/60/127 44/59/128 50/62/129 49/61/130
f 44/59/131 46/66/132 51/63/133 50/62/134
f 46/66/135 45/65/136 52/64/137 51/63/138
f 45/65/139 43/60/140 49/61/141 52/64/142
